<svg width="411" height="731" viewBox="0 0 411 731" fill="none" xmlns="http://www.w3.org/2000/svg">
<rect width="411" height="731" fill="white"/>
<rect width="411" height="731" fill="black"/>
<circle cx="206" cy="597" r="55" fill="#DB9282"/>
<circle cx="206" cy="597" r="70" stroke="#1AC82C" stroke-width="10"/>
<rect x="58.5" y="158.5" width="295" height="47" rx="10.5" stroke="#1AC82C" stroke-width="5"/>
<rect x="58.5" y="288.5" width="295" height="146" rx="10.5" stroke="#1AC82C" stroke-width="5"/>
<rect width="411" height="77" fill="#1AC82C"/>
<path d="M111.44 47.876V25.484C111.44 24.98 112.652 24.728 115.076 24.728C117.524 24.728 118.748 24.98 118.748 25.484V43.124H124.292C124.724 43.124 125.024 43.688 125.192 44.816C125.264 45.368 125.3 45.932 125.3 46.508C125.3 47.084 125.264 47.672 125.192 48.272C125 49.424 124.688 50 124.256 50H113.168C112.64 50 112.22 49.784 111.908 49.352C111.596 48.92 111.44 48.428 111.44 47.876ZM129.821 43.808V30.992H127.265C126.857 30.992 126.569 30.476 126.401 29.444C126.329 28.94 126.293 28.424 126.293 27.896C126.293 27.368 126.329 26.852 126.401 26.348C126.569 25.316 126.857 24.8 127.265 24.8H139.361C139.769 24.8 140.045 25.316 140.189 26.348C140.285 26.852 140.333 27.368 140.333 27.896C140.333 28.424 140.285 28.94 140.189 29.444C140.045 30.476 139.769 30.992 139.361 30.992H136.949V43.808H139.469C139.877 43.808 140.165 44.324 140.333 45.356C140.429 45.86 140.477 46.376 140.477 46.904C140.477 47.432 140.429 47.948 140.333 48.452C140.165 49.484 139.877 50 139.469 50H127.337C126.929 50 126.653 49.484 126.509 48.452C126.413 47.948 126.365 47.432 126.365 46.904C126.365 46.376 126.413 45.86 126.509 45.356C126.653 44.324 126.929 43.808 127.337 43.808H129.821ZM141.474 25.268C141.474 25.148 141.99 25.04 143.022 24.944C144.078 24.824 144.942 24.764 145.614 24.764C148.278 24.764 149.67 25.112 149.79 25.808L152.886 41.648L155.802 25.808C155.946 25.112 157.434 24.764 160.266 24.764C160.962 24.764 161.838 24.812 162.894 24.908C163.95 25.004 164.478 25.112 164.478 25.232L158.106 49.064C158.01 49.448 157.302 49.7 155.982 49.82C153.942 50.036 152.082 50.084 150.402 49.964C148.746 49.82 147.87 49.58 147.774 49.244L141.474 25.268ZM178.379 34.808C178.835 34.808 179.063 35.648 179.063 37.328C179.063 37.832 179.003 38.432 178.883 39.128C178.787 39.8 178.595 40.136 178.307 40.136H173.735V43.736H180.359C180.767 43.736 181.043 44.264 181.187 45.32C181.259 45.776 181.295 46.268 181.295 46.796C181.295 47.3 181.223 47.96 181.079 48.776C180.935 49.592 180.695 50 180.359 50H168.047C167.135 50 166.679 49.628 166.679 48.884V25.736C166.679 25.112 166.955 24.8 167.507 24.8H180.395C180.899 24.8 181.151 25.868 181.151 28.004C181.151 30.116 180.899 31.172 180.395 31.172H173.735V34.808H178.379ZM201.514 24.476C203.266 24.476 204.802 24.728 206.122 25.232C207.466 25.712 208.138 26.372 208.138 27.212C208.138 28.052 207.814 29.096 207.166 30.344C206.542 31.568 206.014 32.18 205.582 32.18C205.462 32.18 205.318 32.12 205.15 32C205.006 31.856 204.646 31.712 204.07 31.568C203.518 31.4 203.038 31.316 202.63 31.316C201.238 31.316 200.11 31.808 199.246 32.792C198.406 33.776 197.986 35.288 197.986 37.328C197.986 39.344 198.418 40.844 199.282 41.828C200.17 42.812 201.286 43.304 202.63 43.304C203.182 43.304 203.794 43.232 204.466 43.088C205.162 42.92 205.654 42.692 205.942 42.404C205.99 42.356 206.086 42.332 206.23 42.332C206.374 42.332 206.638 42.608 207.022 43.16C207.43 43.688 207.802 44.396 208.138 45.284C208.474 46.148 208.642 46.82 208.642 47.3C208.642 48.236 207.922 48.98 206.482 49.532C205.042 50.084 203.338 50.36 201.37 50.36C198.202 50.36 195.598 49.244 193.558 47.012C191.518 44.78 190.498 41.636 190.498 37.58C190.498 33.5 191.542 30.296 193.63 27.968C195.742 25.64 198.37 24.476 201.514 24.476ZM230.982 49.388C230.982 49.796 229.77 50 227.346 50C224.922 50 223.71 49.796 223.71 49.388V41.108H218.67V49.388C218.67 49.796 217.458 50 215.034 50C212.61 50 211.398 49.796 211.398 49.388V25.52C211.398 25.016 212.61 24.764 215.034 24.764C217.458 24.764 218.67 25.016 218.67 25.52V33.98H223.71V25.592C223.71 25.256 224.31 25.016 225.51 24.872C226.134 24.824 226.746 24.8 227.346 24.8L229.182 24.872C230.382 25.016 230.982 25.256 230.982 25.592V49.388ZM245.258 50.36C241.898 50.36 239.15 49.256 237.014 47.048C234.902 44.84 233.846 41.624 233.846 37.4C233.846 33.152 234.914 29.936 237.05 27.752C239.21 25.568 241.982 24.476 245.366 24.476C248.774 24.476 251.522 25.556 253.61 27.716C255.698 29.852 256.742 33.104 256.742 37.472C256.742 41.816 255.674 45.056 253.538 47.192C251.402 49.304 248.642 50.36 245.258 50.36ZM245.294 31.388C244.142 31.388 243.17 31.916 242.378 32.972C241.61 34.028 241.226 35.516 241.226 37.436C241.226 39.332 241.598 40.796 242.342 41.828C243.086 42.836 244.058 43.34 245.258 43.34C246.482 43.34 247.466 42.824 248.21 41.792C248.978 40.76 249.362 39.284 249.362 37.364C249.362 35.444 248.966 33.968 248.174 32.936C247.406 31.904 246.446 31.388 245.294 31.388ZM266.508 49.496C266.508 49.88 265.368 50.072 263.088 50.072C260.784 50.072 259.632 49.892 259.632 49.532V26.06C259.632 25.22 260.076 24.8 260.964 24.8H267.84C274.152 24.8 277.308 27.26 277.308 32.18C277.308 33.668 277.02 35.024 276.444 36.248C275.868 37.448 275.052 38.408 273.996 39.128L278.532 46.688C278.34 47.264 277.716 47.924 276.66 48.668C275.22 49.7 274.032 50.216 273.096 50.216C272.16 50.216 271.464 49.88 271.008 49.208L267.624 41.324H266.508V49.496ZM266.508 31.172V36.572H266.688C268.968 36.572 270.108 35.624 270.108 33.728C270.108 32.864 269.88 32.228 269.424 31.82C268.992 31.388 268.272 31.172 267.264 31.172H266.508ZM280.866 48.344V26.744C280.866 26.144 281.01 25.676 281.298 25.34C281.61 24.98 282.006 24.8 282.486 24.8H288.498C292.314 24.8 295.206 25.76 297.174 27.68C299.166 29.6 300.162 32.624 300.162 36.752C300.162 45.584 296.394 50 288.858 50H282.702C281.478 50 280.866 49.448 280.866 48.344ZM287.778 31.64V42.404C287.778 42.908 287.814 43.232 287.886 43.376C287.958 43.496 288.174 43.556 288.534 43.556C289.854 43.556 290.85 43.064 291.522 42.08C292.218 41.096 292.566 39.464 292.566 37.184C292.566 34.88 292.206 33.38 291.486 32.684C290.79 31.988 289.674 31.64 288.138 31.64H287.778Z" fill="black"/>
<path d="M164.836 132.52C164.836 132.92 163.846 133.12 161.866 133.12C159.886 133.12 158.896 132.92 158.896 132.52V117.46H155.296C154.956 117.46 154.716 117 154.576 116.08C154.516 115.64 154.486 115.19 154.486 114.73C154.486 114.27 154.516 113.82 154.576 113.38C154.716 112.46 154.956 112 155.296 112H168.346C168.686 112 168.926 112.46 169.066 113.38C169.126 113.82 169.156 114.27 169.156 114.73C169.156 115.19 169.126 115.64 169.066 116.08C168.926 117 168.686 117.46 168.346 117.46H164.836V132.52ZM180.614 120.34C180.994 120.34 181.184 121.04 181.184 122.44C181.184 122.86 181.134 123.36 181.034 123.94C180.954 124.5 180.794 124.78 180.554 124.78H176.744V127.78H182.264C182.604 127.78 182.834 128.22 182.954 129.1C183.014 129.48 183.044 129.89 183.044 130.33C183.044 130.75 182.984 131.3 182.864 131.98C182.744 132.66 182.544 133 182.264 133H172.004C171.244 133 170.864 132.69 170.864 132.07V112.78C170.864 112.26 171.094 112 171.554 112H182.294C182.714 112 182.924 112.89 182.924 114.67C182.924 116.43 182.714 117.31 182.294 117.31H176.744V120.34H180.614ZM206.659 133.03C204.879 133.03 203.989 132.83 203.989 132.43L203.359 120.4L199.699 132.58C199.619 132.82 198.939 132.94 197.659 132.94C196.379 132.94 195.719 132.83 195.679 132.61L191.899 120.28L191.479 132.25C191.459 132.55 191.079 132.76 190.339 132.88C189.599 132.98 188.979 133.03 188.479 133.03C187.999 133.03 187.529 133 187.069 132.94C186.109 132.8 185.639 132.55 185.659 132.19L186.349 112.69C186.349 112.21 187.569 111.97 190.009 111.97C190.729 111.97 191.609 112.03 192.649 112.15C193.689 112.25 194.269 112.46 194.389 112.78L197.749 122.23L200.689 112.75C200.869 112.23 202.249 111.97 204.829 111.97C205.569 111.97 206.449 112.03 207.469 112.15C208.509 112.25 209.029 112.44 209.029 112.72L209.899 132.4C209.899 132.62 209.509 132.78 208.729 132.88C207.949 132.98 207.259 133.03 206.659 133.03ZM215.486 133.06C213.666 133.06 212.756 132.86 212.756 132.46V113.02C212.756 112.34 213.066 112 213.686 112H218.966C221.926 112 224.056 112.61 225.356 113.83C226.676 115.05 227.336 116.82 227.336 119.14C227.336 121.06 226.716 122.82 225.476 124.42C224.856 125.22 223.946 125.86 222.746 126.34C221.546 126.82 220.146 127.06 218.546 127.06V132.43C218.546 132.67 218.166 132.84 217.406 132.94C216.666 133.02 216.026 133.06 215.486 133.06ZM218.546 117.22V121.96H218.936C219.636 121.96 220.226 121.74 220.706 121.3C221.186 120.86 221.426 120.24 221.426 119.44C221.426 118.64 221.256 118.07 220.916 117.73C220.596 117.39 220.016 117.22 219.176 117.22H218.546ZM238.895 133.3C236.095 133.3 233.805 132.38 232.025 130.54C230.265 128.7 229.385 126.02 229.385 122.5C229.385 118.96 230.275 116.28 232.055 114.46C233.855 112.64 236.165 111.73 238.985 111.73C241.825 111.73 244.115 112.63 245.855 114.43C247.595 116.21 248.465 118.92 248.465 122.56C248.465 126.18 247.575 128.88 245.795 130.66C244.015 132.42 241.715 133.3 238.895 133.3ZM238.925 117.49C237.965 117.49 237.155 117.93 236.495 118.81C235.855 119.69 235.535 120.93 235.535 122.53C235.535 124.11 235.845 125.33 236.465 126.19C237.085 127.03 237.895 127.45 238.895 127.45C239.915 127.45 240.735 127.02 241.355 126.16C241.995 125.3 242.315 124.07 242.315 122.47C242.315 120.87 241.985 119.64 241.325 118.78C240.685 117.92 239.885 117.49 238.925 117.49ZM256.784 133.09C256.784 133.23 255.834 133.3 253.934 133.3C252.054 133.3 251.114 133.24 251.114 133.12V127.72C251.114 127.54 252.054 127.45 253.934 127.45C255.834 127.45 256.784 127.5 256.784 127.6V133.09ZM256.784 123.46C256.784 123.6 255.834 123.67 253.934 123.67C252.054 123.67 251.114 123.61 251.114 123.49V118.09C251.114 117.91 252.054 117.82 253.934 117.82C255.834 117.82 256.784 117.87 256.784 117.97V123.46Z" fill="#1AC82C"/>
<path d="M102.32 241.73C103.78 241.73 105.06 241.94 106.16 242.36C107.28 242.76 107.84 243.31 107.84 244.01C107.84 244.71 107.57 245.58 107.03 246.62C106.51 247.64 106.07 248.15 105.71 248.15C105.61 248.15 105.49 248.1 105.35 248C105.23 247.88 104.93 247.76 104.45 247.64C103.99 247.5 103.59 247.43 103.25 247.43C102.09 247.43 101.15 247.84 100.43 248.66C99.7302 249.48 99.3802 250.74 99.3802 252.44C99.3802 254.12 99.7402 255.37 100.46 256.19C101.2 257.01 102.13 257.42 103.25 257.42C103.71 257.42 104.22 257.36 104.78 257.24C105.36 257.1 105.77 256.91 106.01 256.67C106.05 256.63 106.13 256.61 106.25 256.61C106.37 256.61 106.59 256.84 106.91 257.3C107.25 257.74 107.56 258.33 107.84 259.07C108.12 259.79 108.26 260.35 108.26 260.75C108.26 261.53 107.66 262.15 106.46 262.61C105.26 263.07 103.84 263.3 102.2 263.3C99.5602 263.3 97.3902 262.37 95.6902 260.51C93.9902 258.65 93.1402 256.03 93.1402 252.65C93.1402 249.25 94.0102 246.58 95.7502 244.64C97.5102 242.7 99.7002 241.73 102.32 241.73ZM120.367 242.6C120.367 242.2 121.447 242 123.607 242C125.787 242 126.877 242.2 126.877 242.6V256.37C126.877 258.41 126.147 260.08 124.687 261.38C123.227 262.66 121.207 263.3 118.627 263.3C116.067 263.3 113.977 262.64 112.357 261.32C110.757 259.98 109.957 258.18 109.957 255.92V242.63C109.957 242.23 111.037 242.03 113.197 242.03C115.377 242.03 116.467 242.23 116.467 242.63V256.16C116.467 256.56 116.677 256.88 117.097 257.12C117.537 257.36 117.997 257.48 118.477 257.48C118.957 257.48 119.387 257.37 119.767 257.15C120.167 256.93 120.367 256.6 120.367 256.16V242.6ZM135.125 262.58C135.125 262.9 134.175 263.06 132.275 263.06C130.355 263.06 129.395 262.91 129.395 262.61V243.05C129.395 242.35 129.765 242 130.505 242H136.235C141.495 242 144.125 244.05 144.125 248.15C144.125 249.39 143.885 250.52 143.405 251.54C142.925 252.54 142.245 253.34 141.365 253.94L145.145 260.24C144.985 260.72 144.465 261.27 143.585 261.89C142.385 262.75 141.395 263.18 140.615 263.18C139.835 263.18 139.255 262.9 138.875 262.34L136.055 255.77H135.125V262.58ZM135.125 247.31V251.81H135.275C137.175 251.81 138.125 251.02 138.125 249.44C138.125 248.72 137.935 248.19 137.555 247.85C137.195 247.49 136.595 247.31 135.755 247.31H135.125ZM152.82 262.58C152.82 262.9 151.87 263.06 149.97 263.06C148.05 263.06 147.09 262.91 147.09 262.61V243.05C147.09 242.35 147.46 242 148.2 242H153.93C159.19 242 161.82 244.05 161.82 248.15C161.82 249.39 161.58 250.52 161.1 251.54C160.62 252.54 159.94 253.34 159.06 253.94L162.84 260.24C162.68 260.72 162.16 261.27 161.28 261.89C160.08 262.75 159.09 263.18 158.31 263.18C157.53 263.18 156.95 262.9 156.57 262.34L153.75 255.77H152.82V262.58ZM152.82 247.31V251.81H152.97C154.87 251.81 155.82 251.02 155.82 249.44C155.82 248.72 155.63 248.19 155.25 247.85C154.89 247.49 154.29 247.31 153.45 247.31H152.82ZM174.535 250.34C174.915 250.34 175.105 251.04 175.105 252.44C175.105 252.86 175.055 253.36 174.955 253.94C174.875 254.5 174.715 254.78 174.475 254.78H170.665V257.78H176.185C176.525 257.78 176.755 258.22 176.875 259.1C176.935 259.48 176.965 259.89 176.965 260.33C176.965 260.75 176.905 261.3 176.785 261.98C176.665 262.66 176.465 263 176.185 263H165.925C165.165 263 164.785 262.69 164.785 262.07V242.78C164.785 242.26 165.015 242 165.475 242H176.215C176.635 242 176.845 242.89 176.845 244.67C176.845 246.43 176.635 247.31 176.215 247.31H170.665V250.34H174.535ZM196.02 262.34C196.02 262.76 195.08 262.97 193.2 262.97C191.32 262.97 190.3 262.82 190.14 262.52L185.13 253.16V262.49C185.13 262.85 184.2 263.03 182.34 263.03C180.5 263.03 179.58 262.85 179.58 262.49V242.42C179.58 242.12 180.37 241.97 181.95 241.97C182.57 241.97 183.29 242.03 184.11 242.15C184.95 242.25 185.46 242.45 185.64 242.75L190.44 251.99V242.57C190.44 242.19 191.37 242 193.23 242C195.09 242 196.02 242.19 196.02 242.57V262.34ZM208.063 262.52C208.063 262.92 207.073 263.12 205.093 263.12C203.113 263.12 202.123 262.92 202.123 262.52V247.46H198.523C198.183 247.46 197.943 247 197.803 246.08C197.743 245.64 197.713 245.19 197.713 244.73C197.713 244.27 197.743 243.82 197.803 243.38C197.943 242.46 198.183 242 198.523 242H211.573C211.913 242 212.153 242.46 212.293 243.38C212.353 243.82 212.383 244.27 212.383 244.73C212.383 245.19 212.353 245.64 212.293 246.08C212.153 247 211.913 247.46 211.573 247.46H208.063V262.52ZM228.326 241.73C229.786 241.73 231.066 241.94 232.166 242.36C233.286 242.76 233.846 243.31 233.846 244.01C233.846 244.71 233.576 245.58 233.036 246.62C232.516 247.64 232.076 248.15 231.716 248.15C231.616 248.15 231.496 248.1 231.356 248C231.236 247.88 230.936 247.76 230.456 247.64C229.996 247.5 229.596 247.43 229.256 247.43C228.096 247.43 227.156 247.84 226.436 248.66C225.736 249.48 225.386 250.74 225.386 252.44C225.386 254.12 225.746 255.37 226.466 256.19C227.206 257.01 228.136 257.42 229.256 257.42C229.716 257.42 230.226 257.36 230.786 257.24C231.366 257.1 231.776 256.91 232.016 256.67C232.056 256.63 232.136 256.61 232.256 256.61C232.376 256.61 232.596 256.84 232.916 257.3C233.256 257.74 233.566 258.33 233.846 259.07C234.126 259.79 234.266 260.35 234.266 260.75C234.266 261.53 233.666 262.15 232.466 262.61C231.266 263.07 229.846 263.3 228.206 263.3C225.566 263.3 223.396 262.37 221.696 260.51C219.996 258.65 219.146 256.03 219.146 252.65C219.146 249.25 220.016 246.58 221.756 244.64C223.516 242.7 225.706 241.73 228.326 241.73ZM252.883 262.49C252.883 262.83 251.873 263 249.853 263C247.833 263 246.823 262.83 246.823 262.49V255.59H242.623V262.49C242.623 262.83 241.613 263 239.593 263C237.573 263 236.563 262.83 236.563 262.49V242.6C236.563 242.18 237.573 241.97 239.593 241.97C241.613 241.97 242.623 242.18 242.623 242.6V249.65H246.823V242.66C246.823 242.38 247.323 242.18 248.323 242.06C248.843 242.02 249.353 242 249.853 242L251.383 242.06C252.383 242.18 252.883 242.38 252.883 242.66V262.49ZM264.779 263.3C261.979 263.3 259.689 262.38 257.909 260.54C256.149 258.7 255.269 256.02 255.269 252.5C255.269 248.96 256.159 246.28 257.939 244.46C259.739 242.64 262.049 241.73 264.869 241.73C267.709 241.73 269.999 242.63 271.739 244.43C273.479 246.21 274.349 248.92 274.349 252.56C274.349 256.18 273.459 258.88 271.679 260.66C269.899 262.42 267.599 263.3 264.779 263.3ZM264.809 247.49C263.849 247.49 263.039 247.93 262.379 248.81C261.739 249.69 261.419 250.93 261.419 252.53C261.419 254.11 261.729 255.33 262.349 256.19C262.969 257.03 263.779 257.45 264.779 257.45C265.799 257.45 266.619 257.02 267.239 256.16C267.879 255.3 268.199 254.07 268.199 252.47C268.199 250.87 267.869 249.64 267.209 248.78C266.569 247.92 265.769 247.49 264.809 247.49ZM282.488 262.58C282.488 262.9 281.538 263.06 279.638 263.06C277.718 263.06 276.758 262.91 276.758 262.61V243.05C276.758 242.35 277.128 242 277.868 242H283.598C288.858 242 291.488 244.05 291.488 248.15C291.488 249.39 291.248 250.52 290.768 251.54C290.288 252.54 289.608 253.34 288.728 253.94L292.508 260.24C292.348 260.72 291.828 261.27 290.948 261.89C289.748 262.75 288.758 263.18 287.978 263.18C287.198 263.18 286.618 262.9 286.238 262.34L283.418 255.77H282.488V262.58ZM282.488 247.31V251.81H282.638C284.538 251.81 285.488 251.02 285.488 249.44C285.488 248.72 285.298 248.19 284.918 247.85C284.558 247.49 283.958 247.31 283.118 247.31H282.488ZM294.453 261.62V243.62C294.453 243.12 294.573 242.73 294.813 242.45C295.073 242.15 295.403 242 295.803 242H300.813C303.993 242 306.403 242.8 308.043 244.4C309.703 246 310.533 248.52 310.533 251.96C310.533 259.32 307.393 263 301.113 263H295.983C294.963 263 294.453 262.54 294.453 261.62ZM300.213 247.7V256.67C300.213 257.09 300.243 257.36 300.303 257.48C300.363 257.58 300.543 257.63 300.843 257.63C301.943 257.63 302.773 257.22 303.333 256.4C303.913 255.58 304.203 254.22 304.203 252.32C304.203 250.4 303.903 249.15 303.303 248.57C302.723 247.99 301.793 247.7 300.513 247.7H300.213ZM318.849 263.09C318.849 263.23 317.899 263.3 315.999 263.3C314.119 263.3 313.179 263.24 313.179 263.12V257.72C313.179 257.54 314.119 257.45 315.999 257.45C317.899 257.45 318.849 257.5 318.849 257.6V263.09ZM318.849 253.46C318.849 253.6 317.899 253.67 315.999 253.67C314.119 253.67 313.179 253.61 313.179 253.49V248.09C313.179 247.91 314.119 247.82 315.999 247.82C317.899 247.82 318.849 247.87 318.849 247.97V253.46Z" fill="#1AC82C"/>
<path d="M83.7398 34.5447L83.7534 48.8401C82.9539 48.3794 82.0325 48.0948 81.0433 48.0948C78.0352 48.0948 75.6097 50.5203 75.6097 53.5149C75.6097 56.5095 78.0352 58.935 81.0433 58.935C84.0515 58.935 86.4498 56.5095 86.4498 53.5149V39.9648H91.8699V34.5447H83.7398ZM81.0433 56.2249C79.5528 56.2249 78.3333 55.0054 78.3333 53.5149C78.3333 52.0244 79.5528 50.8049 81.0433 50.8049C82.5339 50.8049 83.7534 52.0244 83.7534 53.5149C83.7534 55.0054 82.5339 56.2249 81.0433 56.2249Z" fill="black"/>
<path d="M87.2629 23.1626H78.794V37.0176C78.269 36.8313 77.6931 36.7127 77.1003 36.7127C74.2886 36.7127 72.019 38.9824 72.019 41.794C72.019 44.6057 74.2886 46.8753 77.1003 46.8753C79.9119 46.8753 82.1816 44.6057 82.1816 41.794V26.5501H87.2629V23.1626ZM75.4065 23.1626H55.0813V26.5501H75.4065V23.1626ZM75.4065 29.9377H55.0813V33.3252H75.4065V29.9377ZM68.6314 36.7127H55.0813V40.1003H68.6314V36.7127ZM75.4065 41.794C75.4065 40.8625 76.1687 40.1003 77.1003 40.1003C78.0318 40.1003 78.794 40.8625 78.794 41.794C78.794 42.7256 78.0318 43.4878 77.1003 43.4878C76.1687 43.4878 75.4065 42.7256 75.4065 41.794Z" fill="black"/>
<rect x="86" y="466" width="240" height="42" rx="13" fill="#DB9282"/>
<path d="M148.513 493.58C148.513 493.9 147.563 494.06 145.663 494.06C143.743 494.06 142.783 493.91 142.783 493.61V474.05C142.783 473.35 143.153 473 143.893 473H149.623C154.883 473 157.513 475.05 157.513 479.15C157.513 480.39 157.273 481.52 156.793 482.54C156.313 483.54 155.633 484.34 154.753 484.94L158.533 491.24C158.373 491.72 157.853 492.27 156.973 492.89C155.773 493.75 154.783 494.18 154.003 494.18C153.223 494.18 152.643 493.9 152.263 493.34L149.443 486.77H148.513V493.58ZM148.513 478.31V482.81H148.663C150.563 482.81 151.513 482.02 151.513 480.44C151.513 479.72 151.323 479.19 150.943 478.85C150.583 478.49 149.983 478.31 149.143 478.31H148.513ZM171.669 493.19C170.409 493.93 168.789 494.3 166.809 494.3C164.829 494.3 163.159 493.63 161.799 492.29C160.439 490.93 159.759 489.06 159.759 486.68C159.759 484.28 160.409 482.35 161.709 480.89C163.029 479.43 164.689 478.7 166.689 478.7C168.689 478.7 170.229 479.21 171.309 480.23C172.409 481.25 172.959 482.49 172.959 483.95C172.959 487.19 171.099 488.81 167.379 488.81H165.309C165.309 489.41 165.469 489.83 165.789 490.07C166.129 490.29 166.619 490.4 167.259 490.4C168.659 490.4 169.989 490.08 171.249 489.44C171.269 489.42 171.359 489.56 171.519 489.86C171.999 490.72 172.239 491.45 172.239 492.05C172.239 492.63 172.049 493.01 171.669 493.19ZM167.919 484.52C167.919 483.68 167.509 483.26 166.689 483.26C166.309 483.26 165.979 483.38 165.699 483.62C165.439 483.84 165.309 484.17 165.309 484.61V485.54H166.929C167.589 485.54 167.919 485.2 167.919 484.52ZM179.838 486.56C179.838 488.52 180.578 489.5 182.058 489.5C183.018 489.5 183.818 489.31 184.458 488.93C184.758 488.93 184.998 489.45 185.178 490.49C185.378 491.51 185.478 492.21 185.478 492.59C185.478 492.95 185.428 493.19 185.328 493.31C184.268 493.97 182.818 494.3 180.978 494.3C179.138 494.3 177.568 493.62 176.268 492.26C174.988 490.88 174.348 489.01 174.348 486.65C174.348 484.27 174.978 482.35 176.238 480.89C177.518 479.43 179.208 478.7 181.308 478.7C183.428 478.7 184.898 479.21 185.718 480.23C185.898 480.45 185.988 480.78 185.988 481.22C185.988 481.64 185.908 482.16 185.748 482.78C185.388 484.06 184.918 484.8 184.338 485C184.258 485.02 184.138 485.03 183.978 485.03C183.838 485.03 183.658 484.91 183.438 484.67C182.658 483.89 182.028 483.5 181.548 483.5C181.088 483.5 180.688 483.74 180.348 484.22C180.008 484.7 179.838 485.48 179.838 486.56ZM188.923 492.23C187.683 490.85 187.063 488.94 187.063 486.5C187.063 484.06 187.683 482.15 188.923 480.77C190.183 479.39 191.873 478.7 193.993 478.7C196.113 478.7 197.793 479.39 199.033 480.77C200.273 482.15 200.893 484.06 200.893 486.5C200.893 488.94 200.273 490.85 199.033 492.23C197.793 493.61 196.113 494.3 193.993 494.3C191.873 494.3 190.183 493.61 188.923 492.23ZM193.993 483.71C192.873 483.71 192.313 484.63 192.313 486.47C192.313 488.31 192.873 489.23 193.993 489.23C195.133 489.23 195.703 488.31 195.703 486.47C195.703 484.63 195.133 483.71 193.993 483.71ZM209.584 493.97C209.584 494.11 208.674 494.18 206.854 494.18C205.034 494.14 204.124 494.06 204.124 493.94V483.98H203.314C202.994 483.98 202.734 483.79 202.534 483.41C202.354 483.01 202.264 482.52 202.264 481.94C202.264 479.78 202.904 478.7 204.184 478.7C205.084 478.7 205.834 478.98 206.434 479.54C207.034 480.08 207.334 480.7 207.334 481.4C207.754 480.58 208.314 479.93 209.014 479.45C209.734 478.95 210.464 478.7 211.204 478.7C212.364 478.7 213.064 479 213.304 479.6C213.364 479.76 213.394 480 213.394 480.32C213.394 480.62 213.294 481.17 213.094 481.97C212.914 482.77 212.724 483.35 212.524 483.71C212.324 484.07 212.204 484.25 212.164 484.25C212.124 484.25 211.934 484.18 211.594 484.04C211.274 483.88 210.984 483.8 210.724 483.8C209.964 483.8 209.584 484.4 209.584 485.6V493.97ZM222.499 473.18C222.499 472.88 223.289 472.73 224.869 472.73C225.409 472.73 226.029 472.77 226.729 472.85C227.449 472.91 227.809 473 227.809 473.12V488.93H228.859C229.359 488.93 229.689 489.38 229.849 490.28C229.889 490.54 229.909 490.9 229.909 491.36C229.909 491.8 229.769 492.34 229.489 492.98C229.089 493.86 228.449 494.3 227.569 494.3C226.909 494.3 226.319 494.17 225.799 493.91C225.299 493.65 224.959 493.38 224.779 493.1L224.509 492.71C223.409 493.77 222.029 494.3 220.369 494.3C218.709 494.3 217.289 493.61 216.109 492.23C214.929 490.85 214.339 488.93 214.339 486.47C214.339 483.99 214.959 482.08 216.199 480.74C217.439 479.38 218.989 478.7 220.849 478.7C221.389 478.7 221.939 478.76 222.499 478.88V473.18ZM221.509 483.5C220.389 483.5 219.829 484.51 219.829 486.53C219.829 487.55 219.989 488.29 220.309 488.75C220.629 489.19 220.979 489.41 221.359 489.41C221.759 489.41 222.139 489.24 222.499 488.9V483.8C222.159 483.6 221.829 483.5 221.509 483.5ZM237.361 493.82C237.361 493.98 236.441 494.06 234.601 494.06C232.781 494.06 231.871 493.99 231.871 493.85V479.12C231.871 478.98 232.781 478.91 234.601 478.91C236.441 478.91 237.361 478.97 237.361 479.09V493.82ZM237.361 477.32C237.361 477.46 236.441 477.53 234.601 477.53C232.781 477.53 231.871 477.47 231.871 477.35V473.03C231.871 472.83 232.781 472.73 234.601 472.73C236.441 472.73 237.361 472.79 237.361 472.91V477.32ZM246.345 493.82C246.345 493.96 245.625 494.03 244.185 494.03C242.185 493.97 241.185 493.86 241.185 493.7V483.98H240.405C239.885 483.98 239.545 483.54 239.385 482.66C239.345 482.4 239.325 482.14 239.325 481.88C239.325 481.26 239.445 480.64 239.685 480.02C240.045 479.14 240.605 478.7 241.365 478.7C242.125 478.7 242.805 478.88 243.405 479.24C244.005 479.6 244.405 479.96 244.605 480.32C245.865 479.24 247.365 478.7 249.105 478.7C250.845 478.7 252.105 479.17 252.885 480.11C253.665 481.05 254.055 482.59 254.055 484.73V493.73C254.055 493.97 253.195 494.09 251.475 494.09C249.775 494.09 248.925 493.97 248.925 493.73V485.06C248.925 484.06 248.575 483.56 247.875 483.56C247.675 483.56 247.395 483.65 247.035 483.83C246.675 483.99 246.445 484.11 246.345 484.19V493.82ZM262.118 494C260.178 494 258.678 493.38 257.618 492.14C256.558 490.88 256.028 489.03 256.028 486.59C256.028 484.13 256.718 482.21 258.098 480.83C259.498 479.43 261.348 478.73 263.648 478.73C265.968 478.73 267.878 479.24 269.378 480.26V495.2C269.378 496.68 268.778 497.81 267.578 498.59C266.378 499.39 264.838 499.79 262.958 499.79C261.078 499.79 259.398 499.55 257.918 499.07C257.718 498.59 257.618 498.16 257.618 497.78C257.618 496.5 257.828 495.56 258.248 494.96C259.588 495.54 261.018 495.83 262.538 495.83C263.638 495.83 264.188 495.44 264.188 494.66V493.76C263.328 493.92 262.638 494 262.118 494ZM263.498 483.62C262.158 483.62 261.488 484.63 261.488 486.65C261.488 487.91 261.748 488.73 262.268 489.11C262.608 489.37 262.948 489.5 263.288 489.5C263.628 489.5 263.928 489.47 264.188 489.41V483.71C263.948 483.65 263.718 483.62 263.498 483.62Z" fill="black"/>
</svg>
