<svg width="411" height="731" viewBox="0 0 411 731" fill="none" xmlns="http://www.w3.org/2000/svg">
<rect width="411" height="731" fill="white"/>
<rect width="411" height="731" fill="black"/>
<circle cx="206" cy="597" r="55" fill="#1AC82C"/>
<circle cx="206" cy="597" r="70" stroke="#1AC82C" stroke-width="10"/>
<rect x="58.5" y="166.5" width="295" height="47" rx="10.5" stroke="#1AC82C" stroke-width="5"/>
<rect x="58.5" y="317.5" width="295" height="146" rx="10.5" stroke="#1AC82C" stroke-width="5"/>
<rect width="411" height="77" fill="#1AC82C"/>
<path d="M111.44 47.876V25.484C111.44 24.98 112.652 24.728 115.076 24.728C117.524 24.728 118.748 24.98 118.748 25.484V43.124H124.292C124.724 43.124 125.024 43.688 125.192 44.816C125.264 45.368 125.3 45.932 125.3 46.508C125.3 47.084 125.264 47.672 125.192 48.272C125 49.424 124.688 50 124.256 50H113.168C112.64 50 112.22 49.784 111.908 49.352C111.596 48.92 111.44 48.428 111.44 47.876ZM129.821 43.808V30.992H127.265C126.857 30.992 126.569 30.476 126.401 29.444C126.329 28.94 126.293 28.424 126.293 27.896C126.293 27.368 126.329 26.852 126.401 26.348C126.569 25.316 126.857 24.8 127.265 24.8H139.361C139.769 24.8 140.045 25.316 140.189 26.348C140.285 26.852 140.333 27.368 140.333 27.896C140.333 28.424 140.285 28.94 140.189 29.444C140.045 30.476 139.769 30.992 139.361 30.992H136.949V43.808H139.469C139.877 43.808 140.165 44.324 140.333 45.356C140.429 45.86 140.477 46.376 140.477 46.904C140.477 47.432 140.429 47.948 140.333 48.452C140.165 49.484 139.877 50 139.469 50H127.337C126.929 50 126.653 49.484 126.509 48.452C126.413 47.948 126.365 47.432 126.365 46.904C126.365 46.376 126.413 45.86 126.509 45.356C126.653 44.324 126.929 43.808 127.337 43.808H129.821ZM141.474 25.268C141.474 25.148 141.99 25.04 143.022 24.944C144.078 24.824 144.942 24.764 145.614 24.764C148.278 24.764 149.67 25.112 149.79 25.808L152.886 41.648L155.802 25.808C155.946 25.112 157.434 24.764 160.266 24.764C160.962 24.764 161.838 24.812 162.894 24.908C163.95 25.004 164.478 25.112 164.478 25.232L158.106 49.064C158.01 49.448 157.302 49.7 155.982 49.82C153.942 50.036 152.082 50.084 150.402 49.964C148.746 49.82 147.87 49.58 147.774 49.244L141.474 25.268ZM178.379 34.808C178.835 34.808 179.063 35.648 179.063 37.328C179.063 37.832 179.003 38.432 178.883 39.128C178.787 39.8 178.595 40.136 178.307 40.136H173.735V43.736H180.359C180.767 43.736 181.043 44.264 181.187 45.32C181.259 45.776 181.295 46.268 181.295 46.796C181.295 47.3 181.223 47.96 181.079 48.776C180.935 49.592 180.695 50 180.359 50H168.047C167.135 50 166.679 49.628 166.679 48.884V25.736C166.679 25.112 166.955 24.8 167.507 24.8H180.395C180.899 24.8 181.151 25.868 181.151 28.004C181.151 30.116 180.899 31.172 180.395 31.172H173.735V34.808H178.379ZM201.514 24.476C203.266 24.476 204.802 24.728 206.122 25.232C207.466 25.712 208.138 26.372 208.138 27.212C208.138 28.052 207.814 29.096 207.166 30.344C206.542 31.568 206.014 32.18 205.582 32.18C205.462 32.18 205.318 32.12 205.15 32C205.006 31.856 204.646 31.712 204.07 31.568C203.518 31.4 203.038 31.316 202.63 31.316C201.238 31.316 200.11 31.808 199.246 32.792C198.406 33.776 197.986 35.288 197.986 37.328C197.986 39.344 198.418 40.844 199.282 41.828C200.17 42.812 201.286 43.304 202.63 43.304C203.182 43.304 203.794 43.232 204.466 43.088C205.162 42.92 205.654 42.692 205.942 42.404C205.99 42.356 206.086 42.332 206.23 42.332C206.374 42.332 206.638 42.608 207.022 43.16C207.43 43.688 207.802 44.396 208.138 45.284C208.474 46.148 208.642 46.82 208.642 47.3C208.642 48.236 207.922 48.98 206.482 49.532C205.042 50.084 203.338 50.36 201.37 50.36C198.202 50.36 195.598 49.244 193.558 47.012C191.518 44.78 190.498 41.636 190.498 37.58C190.498 33.5 191.542 30.296 193.63 27.968C195.742 25.64 198.37 24.476 201.514 24.476ZM230.982 49.388C230.982 49.796 229.77 50 227.346 50C224.922 50 223.71 49.796 223.71 49.388V41.108H218.67V49.388C218.67 49.796 217.458 50 215.034 50C212.61 50 211.398 49.796 211.398 49.388V25.52C211.398 25.016 212.61 24.764 215.034 24.764C217.458 24.764 218.67 25.016 218.67 25.52V33.98H223.71V25.592C223.71 25.256 224.31 25.016 225.51 24.872C226.134 24.824 226.746 24.8 227.346 24.8L229.182 24.872C230.382 25.016 230.982 25.256 230.982 25.592V49.388ZM245.258 50.36C241.898 50.36 239.15 49.256 237.014 47.048C234.902 44.84 233.846 41.624 233.846 37.4C233.846 33.152 234.914 29.936 237.05 27.752C239.21 25.568 241.982 24.476 245.366 24.476C248.774 24.476 251.522 25.556 253.61 27.716C255.698 29.852 256.742 33.104 256.742 37.472C256.742 41.816 255.674 45.056 253.538 47.192C251.402 49.304 248.642 50.36 245.258 50.36ZM245.294 31.388C244.142 31.388 243.17 31.916 242.378 32.972C241.61 34.028 241.226 35.516 241.226 37.436C241.226 39.332 241.598 40.796 242.342 41.828C243.086 42.836 244.058 43.34 245.258 43.34C246.482 43.34 247.466 42.824 248.21 41.792C248.978 40.76 249.362 39.284 249.362 37.364C249.362 35.444 248.966 33.968 248.174 32.936C247.406 31.904 246.446 31.388 245.294 31.388ZM266.508 49.496C266.508 49.88 265.368 50.072 263.088 50.072C260.784 50.072 259.632 49.892 259.632 49.532V26.06C259.632 25.22 260.076 24.8 260.964 24.8H267.84C274.152 24.8 277.308 27.26 277.308 32.18C277.308 33.668 277.02 35.024 276.444 36.248C275.868 37.448 275.052 38.408 273.996 39.128L278.532 46.688C278.34 47.264 277.716 47.924 276.66 48.668C275.22 49.7 274.032 50.216 273.096 50.216C272.16 50.216 271.464 49.88 271.008 49.208L267.624 41.324H266.508V49.496ZM266.508 31.172V36.572H266.688C268.968 36.572 270.108 35.624 270.108 33.728C270.108 32.864 269.88 32.228 269.424 31.82C268.992 31.388 268.272 31.172 267.264 31.172H266.508ZM280.866 48.344V26.744C280.866 26.144 281.01 25.676 281.298 25.34C281.61 24.98 282.006 24.8 282.486 24.8H288.498C292.314 24.8 295.206 25.76 297.174 27.68C299.166 29.6 300.162 32.624 300.162 36.752C300.162 45.584 296.394 50 288.858 50H282.702C281.478 50 280.866 49.448 280.866 48.344ZM287.778 31.64V42.404C287.778 42.908 287.814 43.232 287.886 43.376C287.958 43.496 288.174 43.556 288.534 43.556C289.854 43.556 290.85 43.064 291.522 42.08C292.218 41.096 292.566 39.464 292.566 37.184C292.566 34.88 292.206 33.38 291.486 32.684C290.79 31.988 289.674 31.64 288.138 31.64H287.778Z" fill="black"/>
<path d="M164.836 140.52C164.836 140.92 163.846 141.12 161.866 141.12C159.886 141.12 158.896 140.92 158.896 140.52V125.46H155.296C154.956 125.46 154.716 125 154.576 124.08C154.516 123.64 154.486 123.19 154.486 122.73C154.486 122.27 154.516 121.82 154.576 121.38C154.716 120.46 154.956 120 155.296 120H168.346C168.686 120 168.926 120.46 169.066 121.38C169.126 121.82 169.156 122.27 169.156 122.73C169.156 123.19 169.126 123.64 169.066 124.08C168.926 125 168.686 125.46 168.346 125.46H164.836V140.52ZM180.614 128.34C180.994 128.34 181.184 129.04 181.184 130.44C181.184 130.86 181.134 131.36 181.034 131.94C180.954 132.5 180.794 132.78 180.554 132.78H176.744V135.78H182.264C182.604 135.78 182.834 136.22 182.954 137.1C183.014 137.48 183.044 137.89 183.044 138.33C183.044 138.75 182.984 139.3 182.864 139.98C182.744 140.66 182.544 141 182.264 141H172.004C171.244 141 170.864 140.69 170.864 140.07V120.78C170.864 120.26 171.094 120 171.554 120H182.294C182.714 120 182.924 120.89 182.924 122.67C182.924 124.43 182.714 125.31 182.294 125.31H176.744V128.34H180.614ZM206.659 141.03C204.879 141.03 203.989 140.83 203.989 140.43L203.359 128.4L199.699 140.58C199.619 140.82 198.939 140.94 197.659 140.94C196.379 140.94 195.719 140.83 195.679 140.61L191.899 128.28L191.479 140.25C191.459 140.55 191.079 140.76 190.339 140.88C189.599 140.98 188.979 141.03 188.479 141.03C187.999 141.03 187.529 141 187.069 140.94C186.109 140.8 185.639 140.55 185.659 140.19L186.349 120.69C186.349 120.21 187.569 119.97 190.009 119.97C190.729 119.97 191.609 120.03 192.649 120.15C193.689 120.25 194.269 120.46 194.389 120.78L197.749 130.23L200.689 120.75C200.869 120.23 202.249 119.97 204.829 119.97C205.569 119.97 206.449 120.03 207.469 120.15C208.509 120.25 209.029 120.44 209.029 120.72L209.899 140.4C209.899 140.62 209.509 140.78 208.729 140.88C207.949 140.98 207.259 141.03 206.659 141.03ZM215.486 141.06C213.666 141.06 212.756 140.86 212.756 140.46V121.02C212.756 120.34 213.066 120 213.686 120H218.966C221.926 120 224.056 120.61 225.356 121.83C226.676 123.05 227.336 124.82 227.336 127.14C227.336 129.06 226.716 130.82 225.476 132.42C224.856 133.22 223.946 133.86 222.746 134.34C221.546 134.82 220.146 135.06 218.546 135.06V140.43C218.546 140.67 218.166 140.84 217.406 140.94C216.666 141.02 216.026 141.06 215.486 141.06ZM218.546 125.22V129.96H218.936C219.636 129.96 220.226 129.74 220.706 129.3C221.186 128.86 221.426 128.24 221.426 127.44C221.426 126.64 221.256 126.07 220.916 125.73C220.596 125.39 220.016 125.22 219.176 125.22H218.546ZM238.895 141.3C236.095 141.3 233.805 140.38 232.025 138.54C230.265 136.7 229.385 134.02 229.385 130.5C229.385 126.96 230.275 124.28 232.055 122.46C233.855 120.64 236.165 119.73 238.985 119.73C241.825 119.73 244.115 120.63 245.855 122.43C247.595 124.21 248.465 126.92 248.465 130.56C248.465 134.18 247.575 136.88 245.795 138.66C244.015 140.42 241.715 141.3 238.895 141.3ZM238.925 125.49C237.965 125.49 237.155 125.93 236.495 126.81C235.855 127.69 235.535 128.93 235.535 130.53C235.535 132.11 235.845 133.33 236.465 134.19C237.085 135.03 237.895 135.45 238.895 135.45C239.915 135.45 240.735 135.02 241.355 134.16C241.995 133.3 242.315 132.07 242.315 130.47C242.315 128.87 241.985 127.64 241.325 126.78C240.685 125.92 239.885 125.49 238.925 125.49ZM256.784 141.09C256.784 141.23 255.834 141.3 253.934 141.3C252.054 141.3 251.114 141.24 251.114 141.12V135.72C251.114 135.54 252.054 135.45 253.934 135.45C255.834 135.45 256.784 135.5 256.784 135.6V141.09ZM256.784 131.46C256.784 131.6 255.834 131.67 253.934 131.67C252.054 131.67 251.114 131.61 251.114 131.49V126.09C251.114 125.91 252.054 125.82 253.934 125.82C255.834 125.82 256.784 125.87 256.784 125.97V131.46Z" fill="#1AC82C"/>
<path d="M119.43 270.73C120.89 270.73 122.17 270.94 123.27 271.36C124.39 271.76 124.95 272.31 124.95 273.01C124.95 273.71 124.68 274.58 124.14 275.62C123.62 276.64 123.18 277.15 122.82 277.15C122.72 277.15 122.6 277.1 122.46 277C122.34 276.88 122.04 276.76 121.56 276.64C121.1 276.5 120.7 276.43 120.36 276.43C119.2 276.43 118.26 276.84 117.54 277.66C116.84 278.48 116.49 279.74 116.49 281.44C116.49 283.12 116.85 284.37 117.57 285.19C118.31 286.01 119.24 286.42 120.36 286.42C120.82 286.42 121.33 286.36 121.89 286.24C122.47 286.1 122.88 285.91 123.12 285.67C123.16 285.63 123.24 285.61 123.36 285.61C123.48 285.61 123.7 285.84 124.02 286.3C124.36 286.74 124.67 287.33 124.95 288.07C125.23 288.79 125.37 289.35 125.37 289.75C125.37 290.53 124.77 291.15 123.57 291.61C122.37 292.07 120.95 292.3 119.31 292.3C116.67 292.3 114.5 291.37 112.8 289.51C111.1 287.65 110.25 285.03 110.25 281.65C110.25 278.25 111.12 275.58 112.86 273.64C114.62 271.7 116.81 270.73 119.43 270.73ZM143.986 291.49C143.986 291.83 142.976 292 140.956 292C138.936 292 137.926 291.83 137.926 291.49V284.59H133.726V291.49C133.726 291.83 132.716 292 130.696 292C128.676 292 127.666 291.83 127.666 291.49V271.6C127.666 271.18 128.676 270.97 130.696 270.97C132.716 270.97 133.726 271.18 133.726 271.6V278.65H137.926V271.66C137.926 271.38 138.426 271.18 139.426 271.06C139.946 271.02 140.456 271 140.956 271L142.486 271.06C143.486 271.18 143.986 271.38 143.986 271.66V291.49ZM155.883 292.3C153.083 292.3 150.793 291.38 149.013 289.54C147.253 287.7 146.373 285.02 146.373 281.5C146.373 277.96 147.263 275.28 149.043 273.46C150.843 271.64 153.153 270.73 155.973 270.73C158.813 270.73 161.103 271.63 162.843 273.43C164.583 275.21 165.453 277.92 165.453 281.56C165.453 285.18 164.563 287.88 162.783 289.66C161.003 291.42 158.703 292.3 155.883 292.3ZM155.913 276.49C154.953 276.49 154.143 276.93 153.483 277.81C152.843 278.69 152.523 279.93 152.523 281.53C152.523 283.11 152.833 284.33 153.453 285.19C154.073 286.03 154.883 286.45 155.883 286.45C156.903 286.45 157.723 286.02 158.343 285.16C158.983 284.3 159.303 283.07 159.303 281.47C159.303 279.87 158.973 278.64 158.313 277.78C157.673 276.92 156.873 276.49 155.913 276.49ZM173.591 291.58C173.591 291.9 172.641 292.06 170.741 292.06C168.821 292.06 167.861 291.91 167.861 291.61V272.05C167.861 271.35 168.231 271 168.971 271H174.701C179.961 271 182.591 273.05 182.591 277.15C182.591 278.39 182.351 279.52 181.871 280.54C181.391 281.54 180.711 282.34 179.831 282.94L183.611 289.24C183.451 289.72 182.931 290.27 182.051 290.89C180.851 291.75 179.861 292.18 179.081 292.18C178.301 292.18 177.721 291.9 177.341 291.34L174.521 284.77H173.591V291.58ZM173.591 276.31V280.81H173.741C175.641 280.81 176.591 280.02 176.591 278.44C176.591 277.72 176.401 277.19 176.021 276.85C175.661 276.49 175.061 276.31 174.221 276.31H173.591ZM185.557 290.62V272.62C185.557 272.12 185.677 271.73 185.917 271.45C186.177 271.15 186.507 271 186.907 271H191.917C195.097 271 197.507 271.8 199.147 273.4C200.807 275 201.637 277.52 201.637 280.96C201.637 288.32 198.497 292 192.217 292H187.087C186.067 292 185.557 291.54 185.557 290.62ZM191.317 276.7V285.67C191.317 286.09 191.347 286.36 191.407 286.48C191.467 286.58 191.647 286.63 191.947 286.63C193.047 286.63 193.877 286.22 194.437 285.4C195.017 284.58 195.307 283.22 195.307 281.32C195.307 279.4 195.007 278.15 194.407 277.57C193.827 276.99 192.897 276.7 191.617 276.7H191.317ZM226.137 291.34C226.137 291.76 225.197 291.97 223.317 291.97C221.437 291.97 220.417 291.82 220.257 291.52L215.247 282.16V291.49C215.247 291.85 214.317 292.03 212.457 292.03C210.617 292.03 209.697 291.85 209.697 291.49V271.42C209.697 271.12 210.487 270.97 212.067 270.97C212.687 270.97 213.407 271.03 214.227 271.15C215.067 271.25 215.577 271.45 215.757 271.75L220.557 280.99V271.57C220.557 271.19 221.487 271 223.347 271C225.207 271 226.137 271.19 226.137 271.57V291.34ZM238.06 292.3C235.26 292.3 232.97 291.38 231.19 289.54C229.43 287.7 228.55 285.02 228.55 281.5C228.55 277.96 229.44 275.28 231.22 273.46C233.02 271.64 235.33 270.73 238.15 270.73C240.99 270.73 243.28 271.63 245.02 273.43C246.76 275.21 247.63 277.92 247.63 281.56C247.63 285.18 246.74 287.88 244.96 289.66C243.18 291.42 240.88 292.3 238.06 292.3ZM238.09 276.49C237.13 276.49 236.32 276.93 235.66 277.81C235.02 278.69 234.7 279.93 234.7 281.53C234.7 283.11 235.01 284.33 235.63 285.19C236.25 286.03 237.06 286.45 238.06 286.45C239.08 286.45 239.9 286.02 240.52 285.16C241.16 284.3 241.48 283.07 241.48 281.47C241.48 279.87 241.15 278.64 240.49 277.78C239.85 276.92 239.05 276.49 238.09 276.49ZM259.069 291.52C259.069 291.92 258.079 292.12 256.099 292.12C254.119 292.12 253.129 291.92 253.129 291.52V276.46H249.529C249.189 276.46 248.949 276 248.809 275.08C248.749 274.64 248.719 274.19 248.719 273.73C248.719 273.27 248.749 272.82 248.809 272.38C248.949 271.46 249.189 271 249.529 271H262.579C262.919 271 263.159 271.46 263.299 272.38C263.359 272.82 263.389 273.27 263.389 273.73C263.389 274.19 263.359 274.64 263.299 275.08C263.159 276 262.919 276.46 262.579 276.46H259.069V291.52ZM274.848 279.34C275.228 279.34 275.418 280.04 275.418 281.44C275.418 281.86 275.368 282.36 275.268 282.94C275.188 283.5 275.028 283.78 274.788 283.78H270.978V286.78H276.498C276.838 286.78 277.068 287.22 277.188 288.1C277.248 288.48 277.278 288.89 277.278 289.33C277.278 289.75 277.218 290.3 277.098 290.98C276.978 291.66 276.778 292 276.498 292H266.238C265.478 292 265.098 291.69 265.098 291.07V271.78C265.098 271.26 265.328 271 265.788 271H276.528C276.948 271 277.158 271.89 277.158 273.67C277.158 275.43 276.948 276.31 276.528 276.31H270.978V279.34H274.848ZM280.673 284.68C281.053 284.98 281.703 285.39 282.623 285.91C283.563 286.43 284.453 286.69 285.293 286.69C286.153 286.69 286.583 286.36 286.583 285.7C286.583 285.4 286.463 285.14 286.223 284.92C285.983 284.68 285.543 284.41 284.903 284.11C284.263 283.81 283.783 283.58 283.463 283.42C283.143 283.24 282.713 282.96 282.173 282.58C281.653 282.18 281.253 281.77 280.973 281.35C280.173 280.21 279.773 278.76 279.773 277C279.773 275.24 280.423 273.76 281.723 272.56C283.043 271.34 284.763 270.73 286.883 270.73C288.323 270.73 289.653 270.89 290.873 271.21C292.093 271.51 292.723 271.91 292.763 272.41C292.763 272.47 292.763 272.53 292.763 272.59C292.763 273.29 292.543 274.18 292.103 275.26C291.663 276.32 291.353 276.91 291.173 277.03C289.893 276.37 288.743 276.04 287.723 276.04C286.723 276.04 286.223 276.4 286.223 277.12C286.223 277.56 286.593 277.95 287.333 278.29C287.493 278.37 287.723 278.48 288.023 278.62C288.323 278.76 288.663 278.93 289.043 279.13C289.443 279.31 289.863 279.55 290.303 279.85C290.763 280.13 291.253 280.51 291.773 280.99C292.833 281.99 293.363 283.31 293.363 284.95C293.363 287.09 292.773 288.84 291.593 290.2C290.413 291.56 288.593 292.26 286.133 292.3C284.933 292.3 283.843 292.2 282.863 292C281.903 291.8 281.063 291.41 280.343 290.83C279.623 290.25 279.263 289.55 279.263 288.73C279.263 287.91 279.413 287.1 279.713 286.3C280.013 285.48 280.333 284.94 280.673 284.68ZM301.74 292.09C301.74 292.23 300.79 292.3 298.89 292.3C297.01 292.3 296.07 292.24 296.07 292.12V286.72C296.07 286.54 297.01 286.45 298.89 286.45C300.79 286.45 301.74 286.5 301.74 286.6V292.09ZM301.74 282.46C301.74 282.6 300.79 282.67 298.89 282.67C297.01 282.67 296.07 282.61 296.07 282.49V277.09C296.07 276.91 297.01 276.82 298.89 276.82C300.79 276.82 301.74 276.87 301.74 276.97V282.46Z" fill="#1AC82C"/>
<path d="M42.7398 34.5447L42.7534 48.8401C41.9539 48.3794 41.0325 48.0948 40.0433 48.0948C37.0352 48.0948 34.6097 50.5203 34.6097 53.5149C34.6097 56.5095 37.0352 58.935 40.0433 58.935C43.0515 58.935 45.4498 56.5095 45.4498 53.5149V39.9648H50.8699V34.5447H42.7398ZM40.0433 56.2249C38.5528 56.2249 37.3333 55.0054 37.3333 53.5149C37.3333 52.0244 38.5528 50.8049 40.0433 50.8049C41.5339 50.8049 42.7534 52.0244 42.7534 53.5149C42.7534 55.0054 41.5339 56.2249 40.0433 56.2249Z" fill="black"/>
<path d="M46.2629 23.1626H37.794V37.0176C37.269 36.8313 36.6931 36.7127 36.1003 36.7127C33.2886 36.7127 31.019 38.9824 31.019 41.794C31.019 44.6057 33.2886 46.8753 36.1003 46.8753C38.9119 46.8753 41.1816 44.6057 41.1816 41.794V26.5501H46.2629V23.1626ZM34.4065 23.1626H14.0813V26.5501H34.4065V23.1626ZM34.4065 29.9377H14.0813V33.3252H34.4065V29.9377ZM27.6314 36.7127H14.0813V40.1003H27.6314V36.7127ZM34.4065 41.794C34.4065 40.8625 35.1687 40.1003 36.1003 40.1003C37.0318 40.1003 37.794 40.8625 37.794 41.794C37.794 42.7256 37.0318 43.4878 36.1003 43.4878C35.1687 43.4878 34.4065 42.7256 34.4065 41.794Z" fill="black"/>
<path d="M379.74 32.5447L379.753 46.8401C378.954 46.3794 378.033 46.0948 377.043 46.0948C374.035 46.0948 371.61 48.5203 371.61 51.5149C371.61 54.5095 374.035 56.935 377.043 56.935C380.051 56.935 382.45 54.5095 382.45 51.5149V37.9648H387.87V32.5447H379.74ZM377.043 54.2249C375.553 54.2249 374.333 53.0054 374.333 51.5149C374.333 50.0244 375.553 48.8049 377.043 48.8049C378.534 48.8049 379.753 50.0244 379.753 51.5149C379.753 53.0054 378.534 54.2249 377.043 54.2249Z" fill="black"/>
<path d="M383.263 21.1626H374.794V35.0176C374.269 34.8313 373.693 34.7127 373.1 34.7127C370.289 34.7127 368.019 36.9824 368.019 39.794C368.019 42.6057 370.289 44.8753 373.1 44.8753C375.912 44.8753 378.182 42.6057 378.182 39.794V24.5501H383.263V21.1626ZM371.407 21.1626H351.081V24.5501H371.407V21.1626ZM371.407 27.9377H351.081V31.3252H371.407V27.9377ZM364.631 34.7127H351.081V38.1003H364.631V34.7127ZM371.407 39.794C371.407 38.8625 372.169 38.1003 373.1 38.1003C374.032 38.1003 374.794 38.8625 374.794 39.794C374.794 40.7256 374.032 41.4878 373.1 41.4878C372.169 41.4878 371.407 40.7256 371.407 39.794Z" fill="black"/>
</svg>
