<svg width="411" height="731" viewBox="0 0 411 731" fill="none" xmlns="http://www.w3.org/2000/svg">
<rect width="411" height="731" fill="white"/>
<rect width="411" height="731" fill="black"/>
<circle cx="206" cy="607" r="55" fill="#1AC82C"/>
<circle cx="206" cy="607" r="70" stroke="#1AC82C" stroke-width="10"/>
<rect width="411" height="77" fill="#1AC82C"/>
<path d="M111.44 47.876V25.484C111.44 24.98 112.652 24.728 115.076 24.728C117.524 24.728 118.748 24.98 118.748 25.484V43.124H124.292C124.724 43.124 125.024 43.688 125.192 44.816C125.264 45.368 125.3 45.932 125.3 46.508C125.3 47.084 125.264 47.672 125.192 48.272C125 49.424 124.688 50 124.256 50H113.168C112.64 50 112.22 49.784 111.908 49.352C111.596 48.92 111.44 48.428 111.44 47.876ZM129.821 43.808V30.992H127.265C126.857 30.992 126.569 30.476 126.401 29.444C126.329 28.94 126.293 28.424 126.293 27.896C126.293 27.368 126.329 26.852 126.401 26.348C126.569 25.316 126.857 24.8 127.265 24.8H139.361C139.769 24.8 140.045 25.316 140.189 26.348C140.285 26.852 140.333 27.368 140.333 27.896C140.333 28.424 140.285 28.94 140.189 29.444C140.045 30.476 139.769 30.992 139.361 30.992H136.949V43.808H139.469C139.877 43.808 140.165 44.324 140.333 45.356C140.429 45.86 140.477 46.376 140.477 46.904C140.477 47.432 140.429 47.948 140.333 48.452C140.165 49.484 139.877 50 139.469 50H127.337C126.929 50 126.653 49.484 126.509 48.452C126.413 47.948 126.365 47.432 126.365 46.904C126.365 46.376 126.413 45.86 126.509 45.356C126.653 44.324 126.929 43.808 127.337 43.808H129.821ZM141.474 25.268C141.474 25.148 141.99 25.04 143.022 24.944C144.078 24.824 144.942 24.764 145.614 24.764C148.278 24.764 149.67 25.112 149.79 25.808L152.886 41.648L155.802 25.808C155.946 25.112 157.434 24.764 160.266 24.764C160.962 24.764 161.838 24.812 162.894 24.908C163.95 25.004 164.478 25.112 164.478 25.232L158.106 49.064C158.01 49.448 157.302 49.7 155.982 49.82C153.942 50.036 152.082 50.084 150.402 49.964C148.746 49.82 147.87 49.58 147.774 49.244L141.474 25.268ZM178.379 34.808C178.835 34.808 179.063 35.648 179.063 37.328C179.063 37.832 179.003 38.432 178.883 39.128C178.787 39.8 178.595 40.136 178.307 40.136H173.735V43.736H180.359C180.767 43.736 181.043 44.264 181.187 45.32C181.259 45.776 181.295 46.268 181.295 46.796C181.295 47.3 181.223 47.96 181.079 48.776C180.935 49.592 180.695 50 180.359 50H168.047C167.135 50 166.679 49.628 166.679 48.884V25.736C166.679 25.112 166.955 24.8 167.507 24.8H180.395C180.899 24.8 181.151 25.868 181.151 28.004C181.151 30.116 180.899 31.172 180.395 31.172H173.735V34.808H178.379ZM201.514 24.476C203.266 24.476 204.802 24.728 206.122 25.232C207.466 25.712 208.138 26.372 208.138 27.212C208.138 28.052 207.814 29.096 207.166 30.344C206.542 31.568 206.014 32.18 205.582 32.18C205.462 32.18 205.318 32.12 205.15 32C205.006 31.856 204.646 31.712 204.07 31.568C203.518 31.4 203.038 31.316 202.63 31.316C201.238 31.316 200.11 31.808 199.246 32.792C198.406 33.776 197.986 35.288 197.986 37.328C197.986 39.344 198.418 40.844 199.282 41.828C200.17 42.812 201.286 43.304 202.63 43.304C203.182 43.304 203.794 43.232 204.466 43.088C205.162 42.92 205.654 42.692 205.942 42.404C205.99 42.356 206.086 42.332 206.23 42.332C206.374 42.332 206.638 42.608 207.022 43.16C207.43 43.688 207.802 44.396 208.138 45.284C208.474 46.148 208.642 46.82 208.642 47.3C208.642 48.236 207.922 48.98 206.482 49.532C205.042 50.084 203.338 50.36 201.37 50.36C198.202 50.36 195.598 49.244 193.558 47.012C191.518 44.78 190.498 41.636 190.498 37.58C190.498 33.5 191.542 30.296 193.63 27.968C195.742 25.64 198.37 24.476 201.514 24.476ZM230.982 49.388C230.982 49.796 229.77 50 227.346 50C224.922 50 223.71 49.796 223.71 49.388V41.108H218.67V49.388C218.67 49.796 217.458 50 215.034 50C212.61 50 211.398 49.796 211.398 49.388V25.52C211.398 25.016 212.61 24.764 215.034 24.764C217.458 24.764 218.67 25.016 218.67 25.52V33.98H223.71V25.592C223.71 25.256 224.31 25.016 225.51 24.872C226.134 24.824 226.746 24.8 227.346 24.8L229.182 24.872C230.382 25.016 230.982 25.256 230.982 25.592V49.388ZM245.258 50.36C241.898 50.36 239.15 49.256 237.014 47.048C234.902 44.84 233.846 41.624 233.846 37.4C233.846 33.152 234.914 29.936 237.05 27.752C239.21 25.568 241.982 24.476 245.366 24.476C248.774 24.476 251.522 25.556 253.61 27.716C255.698 29.852 256.742 33.104 256.742 37.472C256.742 41.816 255.674 45.056 253.538 47.192C251.402 49.304 248.642 50.36 245.258 50.36ZM245.294 31.388C244.142 31.388 243.17 31.916 242.378 32.972C241.61 34.028 241.226 35.516 241.226 37.436C241.226 39.332 241.598 40.796 242.342 41.828C243.086 42.836 244.058 43.34 245.258 43.34C246.482 43.34 247.466 42.824 248.21 41.792C248.978 40.76 249.362 39.284 249.362 37.364C249.362 35.444 248.966 33.968 248.174 32.936C247.406 31.904 246.446 31.388 245.294 31.388ZM266.508 49.496C266.508 49.88 265.368 50.072 263.088 50.072C260.784 50.072 259.632 49.892 259.632 49.532V26.06C259.632 25.22 260.076 24.8 260.964 24.8H267.84C274.152 24.8 277.308 27.26 277.308 32.18C277.308 33.668 277.02 35.024 276.444 36.248C275.868 37.448 275.052 38.408 273.996 39.128L278.532 46.688C278.34 47.264 277.716 47.924 276.66 48.668C275.22 49.7 274.032 50.216 273.096 50.216C272.16 50.216 271.464 49.88 271.008 49.208L267.624 41.324H266.508V49.496ZM266.508 31.172V36.572H266.688C268.968 36.572 270.108 35.624 270.108 33.728C270.108 32.864 269.88 32.228 269.424 31.82C268.992 31.388 268.272 31.172 267.264 31.172H266.508ZM280.866 48.344V26.744C280.866 26.144 281.01 25.676 281.298 25.34C281.61 24.98 282.006 24.8 282.486 24.8H288.498C292.314 24.8 295.206 25.76 297.174 27.68C299.166 29.6 300.162 32.624 300.162 36.752C300.162 45.584 296.394 50 288.858 50H282.702C281.478 50 280.866 49.448 280.866 48.344ZM287.778 31.64V42.404C287.778 42.908 287.814 43.232 287.886 43.376C287.958 43.496 288.174 43.556 288.534 43.556C289.854 43.556 290.85 43.064 291.522 42.08C292.218 41.096 292.566 39.464 292.566 37.184C292.566 34.88 292.206 33.38 291.486 32.684C290.79 31.988 289.674 31.64 288.138 31.64H287.778Z" fill="black"/>
<path d="M83.7398 34.5447L83.7534 48.8401C82.9539 48.3794 82.0325 48.0948 81.0433 48.0948C78.0352 48.0948 75.6097 50.5203 75.6097 53.5149C75.6097 56.5095 78.0352 58.935 81.0433 58.935C84.0515 58.935 86.4498 56.5095 86.4498 53.5149V39.9648H91.8699V34.5447H83.7398ZM81.0433 56.2249C79.5528 56.2249 78.3333 55.0054 78.3333 53.5149C78.3333 52.0244 79.5528 50.8049 81.0433 50.8049C82.5339 50.8049 83.7534 52.0244 83.7534 53.5149C83.7534 55.0054 82.5339 56.2249 81.0433 56.2249Z" fill="black"/>
<path d="M87.2629 23.1626H78.794V37.0176C78.269 36.8313 77.6931 36.7127 77.1003 36.7127C74.2886 36.7127 72.019 38.9824 72.019 41.794C72.019 44.6057 74.2886 46.8753 77.1003 46.8753C79.9119 46.8753 82.1816 44.6057 82.1816 41.794V26.5501H87.2629V23.1626ZM75.4065 23.1626H55.0813V26.5501H75.4065V23.1626ZM75.4065 29.9377H55.0813V33.3252H75.4065V29.9377ZM68.6314 36.7127H55.0813V40.1003H68.6314V36.7127ZM75.4065 41.794C75.4065 40.8625 76.1687 40.1003 77.1003 40.1003C78.0318 40.1003 78.794 40.8625 78.794 41.794C78.794 42.7256 78.0318 43.4878 77.1003 43.4878C76.1687 43.4878 75.4065 42.7256 75.4065 41.794Z" fill="black"/>
<path d="M85.8461 166.072C83.6621 166.072 82.5701 165.832 82.5701 165.352V142.024C82.5701 141.208 82.9421 140.8 83.6861 140.8H90.0221C93.5741 140.8 96.1301 141.532 97.6901 142.996C99.2741 144.46 100.066 146.584 100.066 149.368C100.066 151.672 99.3221 153.784 97.8341 155.704C97.0901 156.664 95.9981 157.432 94.5581 158.008C93.1181 158.584 91.4381 158.872 89.5181 158.872V165.316C89.5181 165.604 89.0621 165.808 88.1501 165.928C87.2621 166.024 86.4941 166.072 85.8461 166.072ZM89.5181 147.064V152.752H89.9861C90.8261 152.752 91.5341 152.488 92.1101 151.96C92.6861 151.432 92.9741 150.688 92.9741 149.728C92.9741 148.768 92.7701 148.084 92.3621 147.676C91.9781 147.268 91.2821 147.064 90.2741 147.064H89.5181ZM110.949 165.964C110.949 166.132 109.857 166.216 107.673 166.216C105.489 166.168 104.397 166.072 104.397 165.928V153.976H103.425C103.041 153.976 102.729 153.748 102.489 153.292C102.273 152.812 102.165 152.224 102.165 151.528C102.165 148.936 102.933 147.64 104.469 147.64C105.549 147.64 106.449 147.976 107.169 148.648C107.889 149.296 108.249 150.04 108.249 150.88C108.753 149.896 109.425 149.116 110.265 148.54C111.129 147.94 112.005 147.64 112.893 147.64C114.285 147.64 115.125 148 115.413 148.72C115.485 148.912 115.521 149.2 115.521 149.584C115.521 149.944 115.401 150.604 115.161 151.564C114.945 152.524 114.717 153.22 114.477 153.652C114.237 154.084 114.093 154.3 114.045 154.3C113.997 154.3 113.769 154.216 113.361 154.048C112.977 153.856 112.629 153.76 112.317 153.76C111.405 153.76 110.949 154.48 110.949 155.92V165.964ZM130.947 165.028C129.435 165.916 127.491 166.36 125.115 166.36C122.739 166.36 120.735 165.556 119.103 163.948C117.471 162.316 116.655 160.072 116.655 157.216C116.655 154.336 117.435 152.02 118.995 150.268C120.579 148.516 122.571 147.64 124.971 147.64C127.371 147.64 129.219 148.252 130.515 149.476C131.835 150.7 132.495 152.188 132.495 153.94C132.495 157.828 130.263 159.772 125.799 159.772H123.315C123.315 160.492 123.507 160.996 123.891 161.284C124.299 161.548 124.887 161.68 125.655 161.68C127.335 161.68 128.931 161.296 130.443 160.528C130.467 160.504 130.575 160.672 130.767 161.032C131.343 162.064 131.631 162.94 131.631 163.66C131.631 164.356 131.403 164.812 130.947 165.028ZM126.447 154.624C126.447 153.616 125.955 153.112 124.971 153.112C124.515 153.112 124.119 153.256 123.783 153.544C123.471 153.808 123.315 154.204 123.315 154.732V155.848H125.259C126.051 155.848 126.447 155.44 126.447 154.624ZM135.603 159.52C137.547 160.696 139.083 161.284 140.211 161.284C140.931 161.284 141.291 161.032 141.291 160.528C141.291 160.168 140.667 159.7 139.419 159.124C136.419 157.9 134.919 155.896 134.919 153.112C134.919 151.336 135.567 149.98 136.863 149.044C138.159 148.108 139.707 147.64 141.507 147.64C143.331 147.64 144.867 147.832 146.115 148.216C147.387 148.6 148.023 149.104 148.023 149.728C148.023 150.256 147.759 150.952 147.231 151.816C146.727 152.68 146.379 153.148 146.187 153.22C145.155 152.644 144.039 152.356 142.839 152.356C142.191 152.356 141.867 152.584 141.867 153.04C141.867 153.328 141.987 153.58 142.227 153.796C142.491 153.988 142.959 154.24 143.631 154.552C144.303 154.84 144.855 155.104 145.287 155.344C145.743 155.584 146.247 155.92 146.799 156.352C147.951 157.264 148.527 158.452 148.527 159.916C148.527 161.836 147.891 163.396 146.619 164.596C145.347 165.772 143.427 166.36 140.859 166.36C139.155 166.36 137.607 166.072 136.215 165.496C134.823 164.92 134.127 164.128 134.127 163.12C134.127 162.448 134.283 161.74 134.595 160.996C134.931 160.252 135.267 159.76 135.603 159.52ZM151.81 159.52C153.754 160.696 155.29 161.284 156.418 161.284C157.138 161.284 157.498 161.032 157.498 160.528C157.498 160.168 156.874 159.7 155.626 159.124C152.626 157.9 151.126 155.896 151.126 153.112C151.126 151.336 151.774 149.98 153.07 149.044C154.366 148.108 155.914 147.64 157.714 147.64C159.538 147.64 161.074 147.832 162.322 148.216C163.594 148.6 164.23 149.104 164.23 149.728C164.23 150.256 163.966 150.952 163.438 151.816C162.934 152.68 162.586 153.148 162.394 153.22C161.362 152.644 160.246 152.356 159.046 152.356C158.398 152.356 158.074 152.584 158.074 153.04C158.074 153.328 158.194 153.58 158.434 153.796C158.698 153.988 159.166 154.24 159.838 154.552C160.51 154.84 161.062 155.104 161.494 155.344C161.95 155.584 162.454 155.92 163.006 156.352C164.158 157.264 164.734 158.452 164.734 159.916C164.734 161.836 164.098 163.396 162.826 164.596C161.554 165.772 159.634 166.36 157.066 166.36C155.362 166.36 153.814 166.072 152.422 165.496C151.03 164.92 150.334 164.128 150.334 163.12C150.334 162.448 150.49 161.74 150.802 160.996C151.138 160.252 151.474 159.76 151.81 159.52ZM182.326 165.784C182.326 166.072 181.318 166.216 179.302 166.216C176.902 166.12 175.702 165.964 175.702 165.748V153.004H173.866C173.386 153.004 173.146 152.176 173.146 150.52C173.146 150.088 173.182 149.56 173.254 148.936C173.35 148.312 173.53 148 173.794 148H175.702V144.832C175.702 144.352 176.71 144.112 178.726 144.112C180.766 144.112 181.786 144.304 181.786 144.688V146.992L181.822 148H184.882C185.29 148 185.494 148.84 185.494 150.52C185.494 152.2 185.29 153.04 184.882 153.04H182.326V165.784ZM193.312 165.748C193.312 165.964 192.304 166.072 190.288 166.072C188.296 166.072 187.3 165.904 187.3 165.568V140.908C187.3 140.74 187.672 140.62 188.416 140.548C189.16 140.476 189.784 140.44 190.288 140.44C192.304 140.44 193.312 140.656 193.312 141.088V148.288C194.656 147.88 195.676 147.676 196.372 147.676C198.196 147.676 199.636 148.168 200.692 149.152C201.748 150.112 202.276 151.912 202.276 154.552V165.712C202.276 165.928 201.34 166.036 199.468 166.036C197.356 165.964 196.3 165.844 196.3 165.676V155.092C196.3 153.916 195.916 153.328 195.148 153.328C194.62 153.328 194.008 153.58 193.312 154.084V165.748ZM218.943 165.028C217.431 165.916 215.487 166.36 213.111 166.36C210.735 166.36 208.731 165.556 207.099 163.948C205.467 162.316 204.651 160.072 204.651 157.216C204.651 154.336 205.431 152.02 206.991 150.268C208.575 148.516 210.567 147.64 212.967 147.64C215.367 147.64 217.215 148.252 218.511 149.476C219.831 150.7 220.491 152.188 220.491 153.94C220.491 157.828 218.259 159.772 213.795 159.772H211.311C211.311 160.492 211.503 160.996 211.887 161.284C212.295 161.548 212.883 161.68 213.651 161.68C215.331 161.68 216.927 161.296 218.439 160.528C218.463 160.504 218.571 160.672 218.763 161.032C219.339 162.064 219.627 162.94 219.627 163.66C219.627 164.356 219.399 164.812 218.943 165.028ZM214.443 154.624C214.443 153.616 213.951 153.112 212.967 153.112C212.511 153.112 212.115 153.256 211.779 153.544C211.467 153.808 211.311 154.204 211.311 154.732V155.848H213.255C214.047 155.848 214.443 155.44 214.443 154.624ZM229.808 140.908C229.808 140.62 230.84 140.476 232.904 140.476C234.992 140.476 236.036 140.632 236.036 140.944V147.928C237.068 147.736 237.8 147.64 238.232 147.64C243.272 147.64 245.792 150.532 245.792 156.316C245.792 159.532 245.012 162.016 243.452 163.768C241.916 165.496 239.72 166.36 236.864 166.36C234.032 166.36 231.68 165.724 229.808 164.452V140.908ZM237.224 153.256C236.816 153.256 236.42 153.388 236.036 153.652V160.528C236.372 160.672 236.72 160.744 237.08 160.744C237.464 160.744 237.848 160.6 238.232 160.312C238.904 159.832 239.24 158.716 239.24 156.964C239.24 154.492 238.568 153.256 237.224 153.256ZM248.151 148.216C248.151 147.952 249.183 147.82 251.247 147.82C253.311 147.82 254.343 147.952 254.343 148.216V158.728C254.343 159.928 254.727 160.528 255.495 160.528C256.071 160.528 256.719 160.276 257.439 159.772V148.216C257.439 147.976 258.459 147.856 260.499 147.856C262.539 147.856 263.559 147.976 263.559 148.216V160.024H264.495C265.311 160.024 265.719 160.804 265.719 162.364C265.719 163.156 265.551 163.96 265.215 164.776C264.735 165.832 264.087 166.36 263.271 166.36C261.663 166.36 260.475 165.7 259.707 164.38L259.671 164.416C258.207 165.712 256.635 166.36 254.955 166.36C252.627 166.36 250.911 165.784 249.807 164.632C248.703 163.456 248.151 161.524 248.151 158.836V148.216ZM276.193 165.784C276.193 166.072 275.185 166.216 273.169 166.216C270.769 166.12 269.569 165.964 269.569 165.748V153.004H267.733C267.253 153.004 267.013 152.176 267.013 150.52C267.013 150.088 267.049 149.56 267.121 148.936C267.217 148.312 267.397 148 267.661 148H269.569V144.832C269.569 144.352 270.577 144.112 272.593 144.112C274.633 144.112 275.653 144.304 275.653 144.688V146.992L275.689 148H278.749C279.157 148 279.361 148.84 279.361 150.52C279.361 152.2 279.157 153.04 278.749 153.04H276.193V165.784ZM289.447 165.784C289.447 166.072 288.439 166.216 286.423 166.216C284.023 166.12 282.823 165.964 282.823 165.748V153.004H280.987C280.507 153.004 280.267 152.176 280.267 150.52C280.267 150.088 280.303 149.56 280.375 148.936C280.471 148.312 280.651 148 280.915 148H282.823V144.832C282.823 144.352 283.831 144.112 285.847 144.112C287.887 144.112 288.907 144.304 288.907 144.688V146.992L288.943 148H292.003C292.411 148 292.615 148.84 292.615 150.52C292.615 152.2 292.411 153.04 292.003 153.04H289.447V165.784ZM295.969 163.876C294.481 162.22 293.737 159.928 293.737 157C293.737 154.072 294.481 151.78 295.969 150.124C297.481 148.468 299.509 147.64 302.053 147.64C304.597 147.64 306.613 148.468 308.101 150.124C309.589 151.78 310.333 154.072 310.333 157C310.333 159.928 309.589 162.22 308.101 163.876C306.613 165.532 304.597 166.36 302.053 166.36C299.509 166.36 297.481 165.532 295.969 163.876ZM302.053 153.652C300.709 153.652 300.037 154.756 300.037 156.964C300.037 159.172 300.709 160.276 302.053 160.276C303.421 160.276 304.105 159.172 304.105 156.964C304.105 154.756 303.421 153.652 302.053 153.652ZM320.402 165.784C320.402 165.952 319.538 166.036 317.81 166.036C315.41 165.964 314.21 165.832 314.21 165.64V153.976H313.274C312.65 153.976 312.242 153.448 312.05 152.392C312.002 152.08 311.978 151.768 311.978 151.456C311.978 150.712 312.122 149.968 312.41 149.224C312.842 148.168 313.514 147.64 314.426 147.64C315.338 147.64 316.154 147.856 316.874 148.288C317.594 148.72 318.074 149.152 318.314 149.584C319.826 148.288 321.626 147.64 323.714 147.64C325.802 147.64 327.314 148.204 328.25 149.332C329.186 150.46 329.654 152.308 329.654 154.876V165.676C329.654 165.964 328.622 166.108 326.558 166.108C324.518 166.108 323.498 165.964 323.498 165.676V155.272C323.498 154.072 323.078 153.472 322.238 153.472C321.998 153.472 321.662 153.58 321.23 153.796C320.798 153.988 320.522 154.132 320.402 154.228V165.784ZM101.593 181.908C101.593 181.62 102.625 181.476 104.689 181.476C106.777 181.476 107.821 181.632 107.821 181.944V188.928C108.853 188.736 109.585 188.64 110.017 188.64C115.057 188.64 117.577 191.532 117.577 197.316C117.577 200.532 116.797 203.016 115.237 204.768C113.701 206.496 111.505 207.36 108.649 207.36C105.817 207.36 103.465 206.724 101.593 205.452V181.908ZM109.009 194.256C108.601 194.256 108.205 194.388 107.821 194.652V201.528C108.157 201.672 108.505 201.744 108.865 201.744C109.249 201.744 109.633 201.6 110.017 201.312C110.689 200.832 111.025 199.716 111.025 197.964C111.025 195.492 110.353 194.256 109.009 194.256ZM133.724 206.028C132.212 206.916 130.268 207.36 127.892 207.36C125.516 207.36 123.512 206.556 121.88 204.948C120.248 203.316 119.432 201.072 119.432 198.216C119.432 195.336 120.212 193.02 121.772 191.268C123.356 189.516 125.348 188.64 127.748 188.64C130.148 188.64 131.996 189.252 133.292 190.476C134.612 191.7 135.272 193.188 135.272 194.94C135.272 198.828 133.04 200.772 128.576 200.772H126.092C126.092 201.492 126.284 201.996 126.668 202.284C127.076 202.548 127.664 202.68 128.432 202.68C130.112 202.68 131.708 202.296 133.22 201.528C133.244 201.504 133.352 201.672 133.544 202.032C134.12 203.064 134.408 203.94 134.408 204.66C134.408 205.356 134.18 205.812 133.724 206.028ZM129.224 195.624C129.224 194.616 128.732 194.112 127.748 194.112C127.292 194.112 126.896 194.256 126.56 194.544C126.248 194.808 126.092 195.204 126.092 195.732V196.848H128.036C128.828 196.848 129.224 196.44 129.224 195.624ZM144.176 206.712C144.176 206.928 142.952 207.036 140.504 207.036C138.584 207.012 137.624 206.916 137.624 206.748V182.232C137.624 181.872 138.788 181.692 141.116 181.692C143.156 181.764 144.176 181.884 144.176 182.052V206.712ZM148.981 204.876C147.493 203.22 146.749 200.928 146.749 198C146.749 195.072 147.493 192.78 148.981 191.124C150.493 189.468 152.521 188.64 155.064 188.64C157.609 188.64 159.625 189.468 161.113 191.124C162.601 192.78 163.345 195.072 163.345 198C163.345 200.928 162.601 203.22 161.113 204.876C159.625 206.532 157.609 207.36 155.064 207.36C152.521 207.36 150.493 206.532 148.981 204.876ZM155.064 194.652C153.721 194.652 153.049 195.756 153.049 197.964C153.049 200.172 153.721 201.276 155.064 201.276C156.433 201.276 157.117 200.172 157.117 197.964C157.117 195.756 156.433 194.652 155.064 194.652ZM184.574 189.18C184.574 188.964 185.234 188.856 186.554 188.856C189.53 188.856 190.994 188.952 190.946 189.144L187.418 206.64C187.346 207.024 186.014 207.216 183.422 207.216C180.83 207.216 179.498 207.024 179.426 206.64L177.95 198.576L176.114 206.64C176.042 207 174.662 207.18 171.974 207.18C169.31 207.18 167.942 206.964 167.87 206.532L164.666 189C164.594 188.856 165.626 188.784 167.762 188.784C169.874 188.808 170.93 188.856 170.93 188.928L172.586 201.096L175.574 189.072C175.622 188.928 176.414 188.856 177.95 188.856C179.486 188.856 180.278 188.928 180.326 189.072L183.278 200.952L184.574 189.18ZM208.025 206.784C208.025 207.072 207.017 207.216 205.001 207.216C202.601 207.12 201.401 206.964 201.401 206.748V194.004H199.565C199.085 194.004 198.845 193.176 198.845 191.52C198.845 191.088 198.881 190.56 198.953 189.936C199.049 189.312 199.229 189 199.493 189H201.401V185.832C201.401 185.352 202.409 185.112 204.425 185.112C206.465 185.112 207.485 185.304 207.485 185.688V187.992L207.521 189H210.581C210.989 189 211.193 189.84 211.193 191.52C211.193 193.2 210.989 194.04 210.581 194.04H208.025V206.784ZM214.547 204.876C213.059 203.22 212.315 200.928 212.315 198C212.315 195.072 213.059 192.78 214.547 191.124C216.059 189.468 218.087 188.64 220.631 188.64C223.175 188.64 225.191 189.468 226.679 191.124C228.167 192.78 228.911 195.072 228.911 198C228.911 200.928 228.167 203.22 226.679 204.876C225.191 206.532 223.175 207.36 220.631 207.36C218.087 207.36 216.059 206.532 214.547 204.876ZM220.631 194.652C219.287 194.652 218.615 195.756 218.615 197.964C218.615 200.172 219.287 201.276 220.631 201.276C221.999 201.276 222.683 200.172 222.683 197.964C222.683 195.756 221.999 194.652 220.631 194.652ZM238.997 200.52C240.941 201.696 242.477 202.284 243.605 202.284C244.325 202.284 244.685 202.032 244.685 201.528C244.685 201.168 244.061 200.7 242.813 200.124C239.813 198.9 238.313 196.896 238.313 194.112C238.313 192.336 238.961 190.98 240.257 190.044C241.553 189.108 243.101 188.64 244.901 188.64C246.725 188.64 248.261 188.832 249.509 189.216C250.781 189.6 251.417 190.104 251.417 190.728C251.417 191.256 251.153 191.952 250.625 192.816C250.121 193.68 249.773 194.148 249.581 194.22C248.549 193.644 247.433 193.356 246.233 193.356C245.585 193.356 245.261 193.584 245.261 194.04C245.261 194.328 245.381 194.58 245.621 194.796C245.885 194.988 246.353 195.24 247.025 195.552C247.697 195.84 248.249 196.104 248.681 196.344C249.137 196.584 249.641 196.92 250.193 197.352C251.345 198.264 251.921 199.452 251.921 200.916C251.921 202.836 251.285 204.396 250.013 205.596C248.741 206.772 246.821 207.36 244.253 207.36C242.549 207.36 241.001 207.072 239.609 206.496C238.217 205.92 237.521 205.128 237.521 204.12C237.521 203.448 237.677 202.74 237.989 201.996C238.325 201.252 238.661 200.76 238.997 200.52ZM262.728 206.784C262.728 207.072 261.72 207.216 259.704 207.216C257.304 207.12 256.104 206.964 256.104 206.748V194.004H254.268C253.788 194.004 253.548 193.176 253.548 191.52C253.548 191.088 253.584 190.56 253.656 189.936C253.752 189.312 253.932 189 254.196 189H256.104V185.832C256.104 185.352 257.112 185.112 259.128 185.112C261.168 185.112 262.188 185.304 262.188 185.688V187.992L262.224 189H265.284C265.692 189 265.896 189.84 265.896 191.52C265.896 193.2 265.692 194.04 265.284 194.04H262.728V206.784ZM269.97 193.932C269.298 192.732 268.962 191.76 268.962 191.016C268.962 190.248 269.166 189.756 269.574 189.54C270.942 188.94 272.814 188.64 275.19 188.64C277.59 188.64 279.282 189.204 280.266 190.332C281.25 191.436 281.742 193.08 281.742 195.264V200.952H282.966C283.374 200.952 283.686 201.192 283.902 201.672C284.142 202.152 284.262 202.812 284.262 203.652C284.262 204.492 284.046 205.32 283.614 206.136C283.206 206.952 282.642 207.36 281.922 207.36C280.626 207.36 279.582 207.012 278.79 206.316C278.43 206.028 278.154 205.68 277.962 205.272C276.858 206.664 275.142 207.36 272.814 207.36C271.062 207.36 269.586 206.736 268.386 205.488C267.186 204.24 266.586 202.764 266.586 201.06C266.586 197.148 268.926 195.192 273.606 195.192H275.586V194.832C275.586 194.208 275.478 193.812 275.262 193.644C275.07 193.452 274.602 193.356 273.858 193.356C272.946 193.356 271.65 193.548 269.97 193.932ZM272.85 200.556C272.85 201.084 272.994 201.492 273.282 201.78C273.57 202.044 273.93 202.176 274.362 202.176C274.818 202.176 275.226 201.996 275.586 201.636V198.864H274.578C273.426 198.864 272.85 199.428 272.85 200.556ZM294.184 206.964C294.184 207.132 293.092 207.216 290.908 207.216C288.724 207.168 287.632 207.072 287.632 206.928V194.976H286.66C286.276 194.976 285.964 194.748 285.724 194.292C285.508 193.812 285.4 193.224 285.4 192.528C285.4 189.936 286.168 188.64 287.704 188.64C288.784 188.64 289.684 188.976 290.404 189.648C291.124 190.296 291.484 191.04 291.484 191.88C291.988 190.896 292.66 190.116 293.5 189.54C294.364 188.94 295.24 188.64 296.128 188.64C297.52 188.64 298.36 189 298.648 189.72C298.72 189.912 298.756 190.2 298.756 190.584C298.756 190.944 298.636 191.604 298.396 192.564C298.18 193.524 297.952 194.22 297.712 194.652C297.472 195.084 297.328 195.3 297.28 195.3C297.232 195.3 297.004 195.216 296.596 195.048C296.212 194.856 295.864 194.76 295.552 194.76C294.64 194.76 294.184 195.48 294.184 196.92V206.964ZM308.853 206.784C308.853 207.072 307.845 207.216 305.829 207.216C303.429 207.12 302.229 206.964 302.229 206.748V194.004H300.393C299.913 194.004 299.673 193.176 299.673 191.52C299.673 191.088 299.709 190.56 299.781 189.936C299.877 189.312 300.057 189 300.321 189H302.229V185.832C302.229 185.352 303.237 185.112 305.253 185.112C307.293 185.112 308.313 185.304 308.313 185.688V187.992L308.349 189H311.409C311.817 189 312.021 189.84 312.021 191.52C312.021 193.2 311.817 194.04 311.409 194.04H308.853V206.784ZM108.541 247.964C108.541 248.132 107.449 248.216 105.265 248.216C103.081 248.168 101.989 248.072 101.989 247.928V235.976H101.017C100.633 235.976 100.321 235.748 100.081 235.292C99.8651 234.812 99.7571 234.224 99.7571 233.528C99.7571 230.936 100.525 229.64 102.061 229.64C103.141 229.64 104.041 229.976 104.761 230.648C105.481 231.296 105.841 232.04 105.841 232.88C106.345 231.896 107.017 231.116 107.857 230.54C108.721 229.94 109.597 229.64 110.485 229.64C111.877 229.64 112.717 230 113.005 230.72C113.077 230.912 113.113 231.2 113.113 231.584C113.113 231.944 112.993 232.604 112.753 233.564C112.537 234.524 112.309 235.22 112.069 235.652C111.829 236.084 111.685 236.3 111.637 236.3C111.589 236.3 111.361 236.216 110.953 236.048C110.569 235.856 110.221 235.76 109.909 235.76C108.997 235.76 108.541 236.48 108.541 237.92V247.964ZM128.539 247.028C127.027 247.916 125.083 248.36 122.707 248.36C120.331 248.36 118.327 247.556 116.695 245.948C115.063 244.316 114.247 242.072 114.247 239.216C114.247 236.336 115.027 234.02 116.587 232.268C118.171 230.516 120.163 229.64 122.563 229.64C124.963 229.64 126.811 230.252 128.107 231.476C129.427 232.7 130.087 234.188 130.087 235.94C130.087 239.828 127.855 241.772 123.391 241.772H120.907C120.907 242.492 121.099 242.996 121.483 243.284C121.891 243.548 122.479 243.68 123.247 243.68C124.927 243.68 126.523 243.296 128.035 242.528C128.059 242.504 128.167 242.672 128.359 243.032C128.935 244.064 129.223 244.94 129.223 245.66C129.223 246.356 128.995 246.812 128.539 247.028ZM124.039 236.624C124.039 235.616 123.547 235.112 122.563 235.112C122.107 235.112 121.711 235.256 121.375 235.544C121.063 235.808 120.907 236.204 120.907 236.732V237.848H122.851C123.643 237.848 124.039 237.44 124.039 236.624ZM138.342 239.072C138.342 241.424 139.23 242.6 141.006 242.6C142.158 242.6 143.118 242.372 143.886 241.916C144.246 241.916 144.534 242.54 144.75 243.788C144.99 245.012 145.11 245.852 145.11 246.308C145.11 246.74 145.05 247.028 144.93 247.172C143.658 247.964 141.918 248.36 139.71 248.36C137.502 248.36 135.618 247.544 134.058 245.912C132.522 244.256 131.754 242.012 131.754 239.18C131.754 236.324 132.51 234.02 134.022 232.268C135.558 230.516 137.586 229.64 140.106 229.64C142.65 229.64 144.414 230.252 145.398 231.476C145.614 231.74 145.722 232.136 145.722 232.664C145.722 233.168 145.626 233.792 145.434 234.536C145.002 236.072 144.438 236.96 143.742 237.2C143.646 237.224 143.502 237.236 143.31 237.236C143.142 237.236 142.926 237.092 142.662 236.804C141.726 235.868 140.97 235.4 140.394 235.4C139.842 235.4 139.362 235.688 138.954 236.264C138.546 236.84 138.342 237.776 138.342 239.072ZM149.244 245.876C147.756 244.22 147.012 241.928 147.012 239C147.012 236.072 147.756 233.78 149.244 232.124C150.756 230.468 152.784 229.64 155.328 229.64C157.872 229.64 159.888 230.468 161.376 232.124C162.864 233.78 163.608 236.072 163.608 239C163.608 241.928 162.864 244.22 161.376 245.876C159.888 247.532 157.872 248.36 155.328 248.36C152.784 248.36 150.756 247.532 149.244 245.876ZM155.328 235.652C153.984 235.652 153.312 236.756 153.312 238.964C153.312 241.172 153.984 242.276 155.328 242.276C156.696 242.276 157.38 241.172 157.38 238.964C157.38 236.756 156.696 235.652 155.328 235.652ZM174.037 247.964C174.037 248.132 172.945 248.216 170.761 248.216C168.577 248.168 167.485 248.072 167.485 247.928V235.976H166.513C166.129 235.976 165.817 235.748 165.577 235.292C165.361 234.812 165.253 234.224 165.253 233.528C165.253 230.936 166.021 229.64 167.557 229.64C168.637 229.64 169.537 229.976 170.257 230.648C170.977 231.296 171.337 232.04 171.337 232.88C171.841 231.896 172.513 231.116 173.353 230.54C174.217 229.94 175.093 229.64 175.981 229.64C177.373 229.64 178.213 230 178.501 230.72C178.573 230.912 178.609 231.2 178.609 231.584C178.609 231.944 178.489 232.604 178.249 233.564C178.033 234.524 177.805 235.22 177.565 235.652C177.325 236.084 177.181 236.3 177.133 236.3C177.085 236.3 176.857 236.216 176.449 236.048C176.065 235.856 175.717 235.76 175.405 235.76C174.493 235.76 174.037 236.48 174.037 237.92V247.964ZM189.535 223.016C189.535 222.656 190.483 222.476 192.379 222.476C193.027 222.476 193.771 222.524 194.611 222.62C195.475 222.692 195.907 222.8 195.907 222.944V241.916H197.167C197.767 241.916 198.163 242.456 198.355 243.536C198.403 243.848 198.427 244.28 198.427 244.832C198.427 245.36 198.259 246.008 197.923 246.776C197.443 247.832 196.675 248.36 195.619 248.36C194.827 248.36 194.119 248.204 193.495 247.892C192.895 247.58 192.487 247.256 192.271 246.92L191.947 246.452C190.627 247.724 188.971 248.36 186.979 248.36C184.987 248.36 183.283 247.532 181.867 245.876C180.451 244.22 179.743 241.916 179.743 238.964C179.743 235.988 180.487 233.696 181.975 232.088C183.463 230.456 185.323 229.64 187.555 229.64C188.203 229.64 188.863 229.712 189.535 229.856V223.016ZM188.347 235.4C187.003 235.4 186.331 236.612 186.331 239.036C186.331 240.26 186.523 241.148 186.907 241.7C187.291 242.228 187.711 242.492 188.167 242.492C188.647 242.492 189.103 242.288 189.535 241.88V235.76C189.127 235.52 188.731 235.4 188.347 235.4ZM207.37 247.784C207.37 247.976 206.266 248.072 204.058 248.072C201.874 248.072 200.782 247.988 200.782 247.82V230.144C200.782 229.976 201.874 229.892 204.058 229.892C206.266 229.892 207.37 229.964 207.37 230.108V247.784ZM207.37 227.984C207.37 228.152 206.266 228.236 204.058 228.236C201.874 228.236 200.782 228.164 200.782 228.02V222.836C200.782 222.596 201.874 222.476 204.058 222.476C206.266 222.476 207.37 222.548 207.37 222.692V227.984ZM218.15 247.784C218.15 247.952 217.286 248.036 215.558 248.036C213.158 247.964 211.958 247.832 211.958 247.64V235.976H211.022C210.398 235.976 209.99 235.448 209.798 234.392C209.75 234.08 209.726 233.768 209.726 233.456C209.726 232.712 209.87 231.968 210.158 231.224C210.59 230.168 211.262 229.64 212.174 229.64C213.086 229.64 213.902 229.856 214.622 230.288C215.342 230.72 215.822 231.152 216.062 231.584C217.574 230.288 219.374 229.64 221.462 229.64C223.55 229.64 225.062 230.204 225.998 231.332C226.934 232.46 227.402 234.308 227.402 236.876V247.676C227.402 247.964 226.37 248.108 224.306 248.108C222.266 248.108 221.246 247.964 221.246 247.676V237.272C221.246 236.072 220.826 235.472 219.986 235.472C219.746 235.472 219.41 235.58 218.978 235.796C218.546 235.988 218.27 236.132 218.15 236.228V247.784ZM237.078 248C234.75 248 232.95 247.256 231.678 245.768C230.406 244.256 229.77 242.036 229.77 239.108C229.77 236.156 230.598 233.852 232.254 232.196C233.934 230.516 236.154 229.676 238.914 229.676C241.698 229.676 243.99 230.288 245.79 231.512V249.44C245.79 251.216 245.07 252.572 243.63 253.508C242.19 254.468 240.342 254.948 238.086 254.948C235.83 254.948 233.814 254.66 232.038 254.084C231.798 253.508 231.678 252.992 231.678 252.536C231.678 251 231.93 249.872 232.434 249.152C234.042 249.848 235.758 250.196 237.582 250.196C238.902 250.196 239.562 249.728 239.562 248.792V247.712C238.53 247.904 237.702 248 237.078 248ZM238.734 235.544C237.126 235.544 236.322 236.756 236.322 239.18C236.322 240.692 236.634 241.676 237.258 242.132C237.666 242.444 238.074 242.6 238.482 242.6C238.89 242.6 239.25 242.564 239.562 242.492V235.652C239.274 235.58 238.998 235.544 238.734 235.544ZM258.07 234.932C257.398 233.732 257.062 232.76 257.062 232.016C257.062 231.248 257.266 230.756 257.674 230.54C259.042 229.94 260.914 229.64 263.29 229.64C265.69 229.64 267.382 230.204 268.366 231.332C269.35 232.436 269.842 234.08 269.842 236.264V241.952H271.066C271.474 241.952 271.786 242.192 272.002 242.672C272.242 243.152 272.362 243.812 272.362 244.652C272.362 245.492 272.146 246.32 271.714 247.136C271.306 247.952 270.742 248.36 270.022 248.36C268.726 248.36 267.682 248.012 266.89 247.316C266.53 247.028 266.254 246.68 266.062 246.272C264.958 247.664 263.242 248.36 260.914 248.36C259.162 248.36 257.686 247.736 256.486 246.488C255.286 245.24 254.686 243.764 254.686 242.06C254.686 238.148 257.026 236.192 261.706 236.192H263.686V235.832C263.686 235.208 263.578 234.812 263.362 234.644C263.17 234.452 262.702 234.356 261.958 234.356C261.046 234.356 259.75 234.548 258.07 234.932ZM260.95 241.556C260.95 242.084 261.094 242.492 261.382 242.78C261.67 243.044 262.03 243.176 262.462 243.176C262.918 243.176 263.326 242.996 263.686 242.636V239.864H262.678C261.526 239.864 260.95 240.428 260.95 241.556ZM281.923 247.784C281.923 247.952 281.059 248.036 279.331 248.036C276.931 247.964 275.731 247.832 275.731 247.64V235.976H274.795C274.171 235.976 273.763 235.448 273.571 234.392C273.523 234.08 273.499 233.768 273.499 233.456C273.499 232.712 273.643 231.968 273.931 231.224C274.363 230.168 275.035 229.64 275.947 229.64C276.859 229.64 277.675 229.856 278.395 230.288C279.115 230.72 279.595 231.152 279.835 231.584C281.347 230.288 283.147 229.64 285.235 229.64C287.323 229.64 288.835 230.204 289.771 231.332C290.707 232.46 291.175 234.308 291.175 236.876V247.676C291.175 247.964 290.143 248.108 288.079 248.108C286.039 248.108 285.019 247.964 285.019 247.676V237.272C285.019 236.072 284.599 235.472 283.759 235.472C283.519 235.472 283.183 235.58 282.751 235.796C282.319 235.988 282.043 236.132 281.923 236.228V247.784ZM303.335 223.016C303.335 222.656 304.283 222.476 306.179 222.476C306.827 222.476 307.571 222.524 308.411 222.62C309.275 222.692 309.707 222.8 309.707 222.944V241.916H310.967C311.567 241.916 311.963 242.456 312.155 243.536C312.203 243.848 312.227 244.28 312.227 244.832C312.227 245.36 312.059 246.008 311.723 246.776C311.243 247.832 310.475 248.36 309.419 248.36C308.627 248.36 307.919 248.204 307.295 247.892C306.695 247.58 306.287 247.256 306.071 246.92L305.747 246.452C304.427 247.724 302.771 248.36 300.779 248.36C298.787 248.36 297.083 247.532 295.667 245.876C294.251 244.22 293.543 241.916 293.543 238.964C293.543 235.988 294.287 233.696 295.775 232.088C297.263 230.456 299.123 229.64 301.355 229.64C302.003 229.64 302.663 229.712 303.335 229.856V223.016ZM302.147 235.4C300.803 235.4 300.131 236.612 300.131 239.036C300.131 240.26 300.323 241.148 300.707 241.7C301.091 242.228 301.511 242.492 301.967 242.492C302.447 242.492 302.903 242.288 303.335 241.88V235.76C302.927 235.52 302.531 235.4 302.147 235.4ZM82.5345 275.932C81.8625 274.732 81.5265 273.76 81.5265 273.016C81.5265 272.248 81.7305 271.756 82.1385 271.54C83.5065 270.94 85.3785 270.64 87.7545 270.64C90.1545 270.64 91.8465 271.204 92.8305 272.332C93.8145 273.436 94.3065 275.08 94.3065 277.264V282.952H95.5305C95.9385 282.952 96.2505 283.192 96.4665 283.672C96.7065 284.152 96.8265 284.812 96.8265 285.652C96.8265 286.492 96.6105 287.32 96.1785 288.136C95.7705 288.952 95.2065 289.36 94.4865 289.36C93.1905 289.36 92.1465 289.012 91.3545 288.316C90.9945 288.028 90.7185 287.68 90.5265 287.272C89.4225 288.664 87.7065 289.36 85.3785 289.36C83.6265 289.36 82.1505 288.736 80.9505 287.488C79.7505 286.24 79.1505 284.764 79.1505 283.06C79.1505 279.148 81.4905 277.192 86.1705 277.192H88.1505V276.832C88.1505 276.208 88.0425 275.812 87.8265 275.644C87.6345 275.452 87.1665 275.356 86.4225 275.356C85.5105 275.356 84.2145 275.548 82.5345 275.932ZM85.4145 282.556C85.4145 283.084 85.5585 283.492 85.8465 283.78C86.1345 284.044 86.4945 284.176 86.9265 284.176C87.3825 284.176 87.7905 283.996 88.1505 283.636V280.864H87.1425C85.9905 280.864 85.4145 281.428 85.4145 282.556ZM106.388 288.784C106.388 288.952 105.524 289.036 103.796 289.036C101.396 288.964 100.196 288.832 100.196 288.64V276.976H99.2601C98.6361 276.976 98.2281 276.448 98.0361 275.392C97.9881 275.08 97.9641 274.768 97.9641 274.456C97.9641 273.712 98.1081 272.968 98.3961 272.224C98.8281 271.168 99.5001 270.64 100.412 270.64C101.324 270.64 102.14 270.856 102.86 271.288C103.58 271.72 104.06 272.152 104.3 272.584C105.812 271.288 107.612 270.64 109.7 270.64C111.788 270.64 113.3 271.204 114.236 272.332C115.172 273.46 115.64 275.308 115.64 277.876V288.676C115.64 288.964 114.608 289.108 112.544 289.108C110.504 289.108 109.484 288.964 109.484 288.676V278.272C109.484 277.072 109.064 276.472 108.224 276.472C107.984 276.472 107.648 276.58 107.216 276.796C106.784 276.988 106.508 277.132 106.388 277.228V288.784ZM120.96 275.932C120.288 274.732 119.952 273.76 119.952 273.016C119.952 272.248 120.156 271.756 120.564 271.54C121.932 270.94 123.804 270.64 126.18 270.64C128.58 270.64 130.272 271.204 131.256 272.332C132.24 273.436 132.732 275.08 132.732 277.264V282.952H133.956C134.364 282.952 134.676 283.192 134.892 283.672C135.132 284.152 135.252 284.812 135.252 285.652C135.252 286.492 135.036 287.32 134.604 288.136C134.196 288.952 133.632 289.36 132.912 289.36C131.616 289.36 130.572 289.012 129.78 288.316C129.42 288.028 129.144 287.68 128.952 287.272C127.848 288.664 126.132 289.36 123.804 289.36C122.052 289.36 120.576 288.736 119.376 287.488C118.176 286.24 117.576 284.764 117.576 283.06C117.576 279.148 119.916 277.192 124.596 277.192H126.576V276.832C126.576 276.208 126.468 275.812 126.252 275.644C126.06 275.452 125.592 275.356 124.848 275.356C123.936 275.356 122.64 275.548 120.96 275.932ZM123.84 282.556C123.84 283.084 123.984 283.492 124.272 283.78C124.56 284.044 124.92 284.176 125.352 284.176C125.808 284.176 126.216 283.996 126.576 283.636V280.864H125.568C124.416 280.864 123.84 281.428 123.84 282.556ZM143.842 288.712C143.842 288.928 142.618 289.036 140.17 289.036C138.25 289.012 137.29 288.916 137.29 288.748V264.232C137.29 263.872 138.454 263.692 140.782 263.692C142.822 263.764 143.842 263.884 143.842 264.052V288.712ZM145.839 271.18C145.839 270.916 146.931 270.784 149.115 270.784C151.323 270.784 152.463 270.904 152.535 271.144L155.127 279.64L157.611 271.072C157.707 270.88 158.451 270.784 159.843 270.784C163.035 270.784 164.559 270.94 164.415 271.252L155.955 295.336C155.931 295.48 155.271 295.552 153.975 295.552C152.703 295.552 151.515 295.504 150.411 295.408C149.307 295.336 148.779 295.24 148.827 295.12L151.959 287.56L145.839 271.18ZM166.362 276.76C166.194 276.76 166.11 276.244 166.11 275.212C166.11 272.404 166.338 271 166.794 271H178.278C178.446 271 178.818 271.528 179.394 272.584C179.97 273.64 180.258 274.24 180.258 274.384C180.258 274.504 180.246 274.576 180.222 274.6L173.238 283.384L179.502 282.952C179.886 282.952 180.078 283.804 180.078 285.508C180.078 286.156 180.018 286.9 179.898 287.74C179.778 288.58 179.574 289 179.286 289H167.766C167.406 289 166.974 288.4 166.47 287.2C165.966 286 165.714 285.28 165.714 285.04C165.714 284.776 165.738 284.62 165.786 284.572L172.662 276.544L166.362 276.76ZM189.37 288.784C189.37 288.976 188.266 289.072 186.058 289.072C183.874 289.072 182.782 288.988 182.782 288.82V271.144C182.782 270.976 183.874 270.892 186.058 270.892C188.266 270.892 189.37 270.964 189.37 271.108V288.784ZM189.37 268.984C189.37 269.152 188.266 269.236 186.058 269.236C183.874 269.236 182.782 269.164 182.782 269.02V263.836C182.782 263.596 183.874 263.476 186.058 263.476C188.266 263.476 189.37 263.548 189.37 263.692V268.984ZM200.15 288.784C200.15 288.952 199.286 289.036 197.558 289.036C195.158 288.964 193.958 288.832 193.958 288.64V276.976H193.022C192.398 276.976 191.99 276.448 191.798 275.392C191.75 275.08 191.726 274.768 191.726 274.456C191.726 273.712 191.87 272.968 192.158 272.224C192.59 271.168 193.262 270.64 194.174 270.64C195.086 270.64 195.902 270.856 196.622 271.288C197.342 271.72 197.822 272.152 198.062 272.584C199.574 271.288 201.374 270.64 203.462 270.64C205.55 270.64 207.062 271.204 207.998 272.332C208.934 273.46 209.402 275.308 209.402 277.876V288.676C209.402 288.964 208.37 289.108 206.306 289.108C204.266 289.108 203.246 288.964 203.246 288.676V278.272C203.246 277.072 202.826 276.472 201.986 276.472C201.746 276.472 201.41 276.58 200.978 276.796C200.546 276.988 200.27 277.132 200.15 277.228V288.784ZM219.078 289C216.75 289 214.95 288.256 213.678 286.768C212.406 285.256 211.77 283.036 211.77 280.108C211.77 277.156 212.598 274.852 214.254 273.196C215.934 271.516 218.154 270.676 220.914 270.676C223.698 270.676 225.99 271.288 227.79 272.512V290.44C227.79 292.216 227.07 293.572 225.63 294.508C224.19 295.468 222.342 295.948 220.086 295.948C217.83 295.948 215.814 295.66 214.038 295.084C213.798 294.508 213.678 293.992 213.678 293.536C213.678 292 213.93 290.872 214.434 290.152C216.042 290.848 217.758 291.196 219.582 291.196C220.902 291.196 221.562 290.728 221.562 289.792V288.712C220.53 288.904 219.702 289 219.078 289ZM220.734 276.544C219.126 276.544 218.322 277.756 218.322 280.18C218.322 281.692 218.634 282.676 219.258 283.132C219.666 283.444 220.074 283.6 220.482 283.6C220.89 283.6 221.25 283.564 221.562 283.492V276.652C221.274 276.58 220.998 276.544 220.734 276.544ZM240.07 275.932C239.398 274.732 239.062 273.76 239.062 273.016C239.062 272.248 239.266 271.756 239.674 271.54C241.042 270.94 242.914 270.64 245.29 270.64C247.69 270.64 249.382 271.204 250.366 272.332C251.35 273.436 251.842 275.08 251.842 277.264V282.952H253.066C253.474 282.952 253.786 283.192 254.002 283.672C254.242 284.152 254.362 284.812 254.362 285.652C254.362 286.492 254.146 287.32 253.714 288.136C253.306 288.952 252.742 289.36 252.022 289.36C250.726 289.36 249.682 289.012 248.89 288.316C248.53 288.028 248.254 287.68 248.062 287.272C246.958 288.664 245.242 289.36 242.914 289.36C241.162 289.36 239.686 288.736 238.486 287.488C237.286 286.24 236.686 284.764 236.686 283.06C236.686 279.148 239.026 277.192 243.706 277.192H245.686V276.832C245.686 276.208 245.578 275.812 245.362 275.644C245.17 275.452 244.702 275.356 243.958 275.356C243.046 275.356 241.75 275.548 240.07 275.932ZM242.95 282.556C242.95 283.084 243.094 283.492 243.382 283.78C243.67 284.044 244.03 284.176 244.462 284.176C244.918 284.176 245.326 283.996 245.686 283.636V280.864H244.678C243.526 280.864 242.95 281.428 242.95 282.556ZM256.219 271.216C256.219 270.952 257.251 270.82 259.315 270.82C261.379 270.82 262.411 270.952 262.411 271.216V281.728C262.411 282.928 262.795 283.528 263.563 283.528C264.139 283.528 264.787 283.276 265.507 282.772V271.216C265.507 270.976 266.527 270.856 268.567 270.856C270.607 270.856 271.627 270.976 271.627 271.216V283.024H272.563C273.379 283.024 273.787 283.804 273.787 285.364C273.787 286.156 273.619 286.96 273.283 287.776C272.803 288.832 272.155 289.36 271.339 289.36C269.731 289.36 268.543 288.7 267.775 287.38L267.739 287.416C266.275 288.712 264.703 289.36 263.023 289.36C260.695 289.36 258.979 288.784 257.875 287.632C256.771 286.456 256.219 284.524 256.219 281.836V271.216ZM285.089 264.016C285.089 263.656 286.037 263.476 287.933 263.476C288.581 263.476 289.325 263.524 290.165 263.62C291.029 263.692 291.461 263.8 291.461 263.944V282.916H292.721C293.321 282.916 293.717 283.456 293.909 284.536C293.957 284.848 293.981 285.28 293.981 285.832C293.981 286.36 293.813 287.008 293.477 287.776C292.997 288.832 292.229 289.36 291.173 289.36C290.381 289.36 289.673 289.204 289.049 288.892C288.449 288.58 288.041 288.256 287.825 287.92L287.501 287.452C286.181 288.724 284.525 289.36 282.533 289.36C280.541 289.36 278.837 288.532 277.421 286.876C276.005 285.22 275.297 282.916 275.297 279.964C275.297 276.988 276.041 274.696 277.529 273.088C279.017 271.456 280.877 270.64 283.109 270.64C283.757 270.64 284.417 270.712 285.089 270.856V264.016ZM283.901 276.4C282.557 276.4 281.885 277.612 281.885 280.036C281.885 281.26 282.077 282.148 282.461 282.7C282.845 283.228 283.265 283.492 283.721 283.492C284.201 283.492 284.657 283.288 285.089 282.88V276.76C284.681 276.52 284.285 276.4 283.901 276.4ZM302.925 288.784C302.925 288.976 301.821 289.072 299.613 289.072C297.429 289.072 296.337 288.988 296.337 288.82V271.144C296.337 270.976 297.429 270.892 299.613 270.892C301.821 270.892 302.925 270.964 302.925 271.108V288.784ZM302.925 268.984C302.925 269.152 301.821 269.236 299.613 269.236C297.429 269.236 296.337 269.164 296.337 269.02V263.836C296.337 263.596 297.429 263.476 299.613 263.476C301.821 263.476 302.925 263.548 302.925 263.692V268.984ZM307.729 286.876C306.241 285.22 305.497 282.928 305.497 280C305.497 277.072 306.241 274.78 307.729 273.124C309.241 271.468 311.269 270.64 313.813 270.64C316.357 270.64 318.373 271.468 319.861 273.124C321.349 274.78 322.093 277.072 322.093 280C322.093 282.928 321.349 285.22 319.861 286.876C318.373 288.532 316.357 289.36 313.813 289.36C311.269 289.36 309.241 288.532 307.729 286.876ZM313.813 276.652C312.469 276.652 311.797 277.756 311.797 279.964C311.797 282.172 312.469 283.276 313.813 283.276C315.181 283.276 315.865 282.172 315.865 279.964C315.865 277.756 315.181 276.652 313.813 276.652ZM330.578 281.44C330.578 281.584 329.714 281.656 327.986 281.656C326.282 281.656 325.43 281.596 325.43 281.476L324.71 263.728C324.71 263.536 325.802 263.44 327.986 263.44C330.194 263.44 331.298 263.524 331.298 263.692L330.578 281.44ZM324.638 283.6C324.638 283.432 325.742 283.348 327.95 283.348C330.182 283.348 331.298 283.42 331.298 283.564V288.748C331.298 288.988 330.182 289.108 327.95 289.108C325.742 289.108 324.638 289.036 324.638 288.892V283.6Z" fill="#1AC82C"/>
<path d="M200.639 439.34C203.59 442.246 208.338 442.211 211.245 439.26L258.615 391.173C261.522 388.222 261.486 383.473 258.535 380.566C255.584 377.66 250.836 377.695 247.929 380.646L205.822 423.39L163.078 381.284C160.127 378.377 155.379 378.413 152.472 381.364C149.565 384.315 149.601 389.063 152.552 391.97L200.639 439.34ZM197.5 314.056L198.402 434.053L213.402 433.94L212.5 313.944L197.5 314.056Z" fill="#1AC82C"/>
<rect x="91" y="472" width="240" height="42" rx="13" fill="#1AC82C"/>
<path d="M138.457 499.34C138.457 499.76 137.517 499.97 135.637 499.97C133.757 499.97 132.737 499.82 132.577 499.52L127.567 490.16V499.49C127.567 499.85 126.637 500.03 124.777 500.03C122.937 500.03 122.017 499.85 122.017 499.49V479.42C122.017 479.12 122.807 478.97 124.387 478.97C125.007 478.97 125.727 479.03 126.547 479.15C127.387 479.25 127.897 479.45 128.077 479.75L132.877 488.99V479.57C132.877 479.19 133.807 479 135.667 479C137.527 479 138.457 479.19 138.457 479.57V499.34ZM142.61 498.23C141.37 496.85 140.75 494.94 140.75 492.5C140.75 490.06 141.37 488.15 142.61 486.77C143.87 485.39 145.56 484.7 147.68 484.7C149.8 484.7 151.48 485.39 152.72 486.77C153.96 488.15 154.58 490.06 154.58 492.5C154.58 494.94 153.96 496.85 152.72 498.23C151.48 499.61 149.8 500.3 147.68 500.3C145.56 500.3 143.87 499.61 142.61 498.23ZM147.68 489.71C146.56 489.71 146 490.63 146 492.47C146 494.31 146.56 495.23 147.68 495.23C148.82 495.23 149.39 494.31 149.39 492.47C149.39 490.63 148.82 489.71 147.68 489.71ZM163.601 499.82C163.601 500.06 162.761 500.18 161.081 500.18C159.081 500.1 158.081 499.97 158.081 499.79V489.17H156.551C156.151 489.17 155.951 488.48 155.951 487.1C155.951 486.74 155.981 486.3 156.041 485.78C156.121 485.26 156.271 485 156.491 485H158.081V482.36C158.081 481.96 158.921 481.76 160.601 481.76C162.301 481.76 163.151 481.92 163.151 482.24V484.16L163.181 485H165.731C166.071 485 166.241 485.7 166.241 487.1C166.241 488.5 166.071 489.2 165.731 489.2H163.601V499.82ZM179.28 499.58C179.28 499.9 178.33 500.06 176.43 500.06C174.51 500.06 173.55 499.91 173.55 499.61V480.05C173.55 479.35 173.92 479 174.66 479H180.39C185.65 479 188.28 481.05 188.28 485.15C188.28 486.39 188.04 487.52 187.56 488.54C187.08 489.54 186.4 490.34 185.52 490.94L189.3 497.24C189.14 497.72 188.62 498.27 187.74 498.89C186.54 499.75 185.55 500.18 184.77 500.18C183.99 500.18 183.41 499.9 183.03 499.34L180.21 492.77H179.28V499.58ZM179.28 484.31V488.81H179.43C181.33 488.81 182.28 488.02 182.28 486.44C182.28 485.72 182.09 485.19 181.71 484.85C181.35 484.49 180.75 484.31 179.91 484.31H179.28ZM202.435 499.19C201.175 499.93 199.555 500.3 197.575 500.3C195.595 500.3 193.925 499.63 192.565 498.29C191.205 496.93 190.525 495.06 190.525 492.68C190.525 490.28 191.175 488.35 192.475 486.89C193.795 485.43 195.455 484.7 197.455 484.7C199.455 484.7 200.995 485.21 202.075 486.23C203.175 487.25 203.725 488.49 203.725 489.95C203.725 493.19 201.865 494.81 198.145 494.81H196.075C196.075 495.41 196.235 495.83 196.555 496.07C196.895 496.29 197.385 496.4 198.025 496.4C199.425 496.4 200.755 496.08 202.015 495.44C202.035 495.42 202.125 495.56 202.285 495.86C202.765 496.72 203.005 497.45 203.005 498.05C203.005 498.63 202.815 499.01 202.435 499.19ZM198.685 490.52C198.685 489.68 198.275 489.26 197.455 489.26C197.075 489.26 196.745 489.38 196.465 489.62C196.205 489.84 196.075 490.17 196.075 490.61V491.54H197.695C198.355 491.54 198.685 491.2 198.685 490.52ZM210.605 492.56C210.605 494.52 211.345 495.5 212.825 495.5C213.785 495.5 214.585 495.31 215.225 494.93C215.525 494.93 215.765 495.45 215.945 496.49C216.145 497.51 216.245 498.21 216.245 498.59C216.245 498.95 216.195 499.19 216.095 499.31C215.035 499.97 213.585 500.3 211.745 500.3C209.905 500.3 208.335 499.62 207.035 498.26C205.755 496.88 205.115 495.01 205.115 492.65C205.115 490.27 205.745 488.35 207.005 486.89C208.285 485.43 209.975 484.7 212.075 484.7C214.195 484.7 215.665 485.21 216.485 486.23C216.665 486.45 216.755 486.78 216.755 487.22C216.755 487.64 216.675 488.16 216.515 488.78C216.155 490.06 215.685 490.8 215.105 491C215.025 491.02 214.905 491.03 214.745 491.03C214.605 491.03 214.425 490.91 214.205 490.67C213.425 489.89 212.795 489.5 212.315 489.5C211.855 489.5 211.455 489.74 211.115 490.22C210.775 490.7 210.605 491.48 210.605 492.56ZM219.69 498.23C218.45 496.85 217.83 494.94 217.83 492.5C217.83 490.06 218.45 488.15 219.69 486.77C220.95 485.39 222.64 484.7 224.76 484.7C226.88 484.7 228.56 485.39 229.8 486.77C231.04 488.15 231.66 490.06 231.66 492.5C231.66 494.94 231.04 496.85 229.8 498.23C228.56 499.61 226.88 500.3 224.76 500.3C222.64 500.3 220.95 499.61 219.69 498.23ZM224.76 489.71C223.64 489.71 223.08 490.63 223.08 492.47C223.08 494.31 223.64 495.23 224.76 495.23C225.9 495.23 226.47 494.31 226.47 492.47C226.47 490.63 225.9 489.71 224.76 489.71ZM240.351 499.97C240.351 500.11 239.441 500.18 237.621 500.18C235.801 500.14 234.891 500.06 234.891 499.94V489.98H234.081C233.761 489.98 233.501 489.79 233.301 489.41C233.121 489.01 233.031 488.52 233.031 487.94C233.031 485.78 233.671 484.7 234.951 484.7C235.851 484.7 236.601 484.98 237.201 485.54C237.801 486.08 238.101 486.7 238.101 487.4C238.521 486.58 239.081 485.93 239.781 485.45C240.501 484.95 241.231 484.7 241.971 484.7C243.131 484.7 243.831 485 244.071 485.6C244.131 485.76 244.161 486 244.161 486.32C244.161 486.62 244.061 487.17 243.861 487.97C243.681 488.77 243.491 489.35 243.291 489.71C243.091 490.07 242.971 490.25 242.931 490.25C242.891 490.25 242.701 490.18 242.361 490.04C242.041 489.88 241.751 489.8 241.491 489.8C240.731 489.8 240.351 490.4 240.351 491.6V499.97ZM253.265 479.18C253.265 478.88 254.055 478.73 255.635 478.73C256.175 478.73 256.795 478.77 257.495 478.85C258.215 478.91 258.575 479 258.575 479.12V494.93H259.625C260.125 494.93 260.455 495.38 260.615 496.28C260.655 496.54 260.675 496.9 260.675 497.36C260.675 497.8 260.535 498.34 260.255 498.98C259.855 499.86 259.215 500.3 258.335 500.3C257.675 500.3 257.085 500.17 256.565 499.91C256.065 499.65 255.725 499.38 255.545 499.1L255.275 498.71C254.175 499.77 252.795 500.3 251.135 500.3C249.475 500.3 248.055 499.61 246.875 498.23C245.695 496.85 245.105 494.93 245.105 492.47C245.105 489.99 245.725 488.08 246.965 486.74C248.205 485.38 249.755 484.7 251.615 484.7C252.155 484.7 252.705 484.76 253.265 484.88V479.18ZM252.275 489.5C251.155 489.5 250.595 490.51 250.595 492.53C250.595 493.55 250.755 494.29 251.075 494.75C251.395 495.19 251.745 495.41 252.125 495.41C252.525 495.41 252.905 495.24 253.265 494.9V489.8C252.925 489.6 252.595 489.5 252.275 489.5ZM268.128 499.82C268.128 499.98 267.208 500.06 265.368 500.06C263.548 500.06 262.638 499.99 262.638 499.85V485.12C262.638 484.98 263.548 484.91 265.368 484.91C267.208 484.91 268.128 484.97 268.128 485.09V499.82ZM268.128 483.32C268.128 483.46 267.208 483.53 265.368 483.53C263.548 483.53 262.638 483.47 262.638 483.35V479.03C262.638 478.83 263.548 478.73 265.368 478.73C267.208 478.73 268.128 478.79 268.128 478.91V483.32ZM277.111 499.82C277.111 499.96 276.391 500.03 274.951 500.03C272.951 499.97 271.951 499.86 271.951 499.7V489.98H271.171C270.651 489.98 270.311 489.54 270.151 488.66C270.111 488.4 270.091 488.14 270.091 487.88C270.091 487.26 270.211 486.64 270.451 486.02C270.811 485.14 271.371 484.7 272.131 484.7C272.891 484.7 273.571 484.88 274.171 485.24C274.771 485.6 275.171 485.96 275.371 486.32C276.631 485.24 278.131 484.7 279.871 484.7C281.611 484.7 282.871 485.17 283.651 486.11C284.431 487.05 284.821 488.59 284.821 490.73V499.73C284.821 499.97 283.961 500.09 282.241 500.09C280.541 500.09 279.691 499.97 279.691 499.73V491.06C279.691 490.06 279.341 489.56 278.641 489.56C278.441 489.56 278.161 489.65 277.801 489.83C277.441 489.99 277.211 490.11 277.111 490.19V499.82ZM292.885 500C290.945 500 289.445 499.38 288.385 498.14C287.325 496.88 286.795 495.03 286.795 492.59C286.795 490.13 287.485 488.21 288.865 486.83C290.265 485.43 292.115 484.73 294.415 484.73C296.735 484.73 298.645 485.24 300.145 486.26V501.2C300.145 502.68 299.545 503.81 298.345 504.59C297.145 505.39 295.605 505.79 293.725 505.79C291.845 505.79 290.165 505.55 288.685 505.07C288.485 504.59 288.385 504.16 288.385 503.78C288.385 502.5 288.595 501.56 289.015 500.96C290.355 501.54 291.785 501.83 293.305 501.83C294.405 501.83 294.955 501.44 294.955 500.66V499.76C294.095 499.92 293.405 500 292.885 500ZM294.265 489.62C292.925 489.62 292.255 490.63 292.255 492.65C292.255 493.91 292.515 494.73 293.035 495.11C293.375 495.37 293.715 495.5 294.055 495.5C294.395 495.5 294.695 495.47 294.955 495.41V489.71C294.715 489.65 294.485 489.62 294.265 489.62Z" fill="black"/>
</svg>
